<svg width="778" height="551" viewBox="0 0 778 551" fill="none" xmlns="http://www.w3.org/2000/svg">
<path opacity="0.2" d="M427.282 415.652C278.836 417.818 186.194 335.11 180.711 244.926C179.394 223.259 177.242 205.213 181.005 188.879C184.78 172.49 194.493 157.853 216.776 142.882C228.597 134.94 237.369 126.785 245.056 118.991C252.731 111.208 259.363 103.743 266.844 97.2568C281.865 84.2335 300.354 75.1041 337.972 74.5551C410.714 73.4937 496.39 94.4539 564.569 126.914C598.659 143.145 628.4 162.263 649.968 182.962C671.531 203.656 684.974 225.979 686.35 248.612C687.096 260.877 681.846 272.211 672.794 282.766C663.743 293.319 650.855 303.135 636.231 312.375C621.605 321.618 605.216 330.301 589.149 338.581C573.074 346.864 557.328 354.742 543.955 362.384C532.519 368.919 523.806 375.442 516.094 381.573C508.391 387.698 501.655 393.458 494.221 398.423C479.307 408.382 461.568 415.152 427.282 415.652Z" fill="url(#paint0_radial_1_128)" stroke="#D1BBFD"/>
<path d="M746.177 233.437C743.61 286.611 709.457 333.99 656.433 367.62C603.405 401.252 531.457 421.171 453.157 419.438C377.418 417.761 309.59 395.635 260.293 361.456C207.667 324.967 176.107 274.696 178.706 220.875C181.222 168.76 215.377 121.384 268.411 87.49C321.45 53.5931 393.422 33.1418 471.725 34.8751C513.992 35.8108 548.712 53.3651 579.094 75.7423C594.283 86.9304 608.397 99.3298 621.828 111.467C635.265 123.61 648.011 135.482 660.491 145.643C671.165 154.333 681.984 161.082 692.184 167.087C702.373 173.085 711.974 178.355 720.155 184.061C728.343 189.772 735.154 195.949 739.765 203.794C744.38 211.647 746.771 221.137 746.177 233.437Z" fill="white" stroke="#D1BBFD"/>
<path opacity="0.2" d="M760.346 235.356C757.779 288.53 723.626 335.908 670.602 369.539C617.574 403.171 545.626 423.09 467.326 421.357C391.587 419.68 323.759 397.554 274.463 363.375C221.836 326.886 190.276 276.615 192.875 222.794C195.391 170.679 229.546 123.303 282.58 89.4089C335.619 55.5119 407.592 35.0607 485.894 36.794C528.161 37.7296 562.882 55.2839 593.263 77.6612C608.453 88.8493 622.566 101.249 635.997 113.386C649.435 125.529 662.18 137.401 674.661 147.562C685.335 156.252 696.153 163.001 706.354 169.006C716.542 175.004 726.144 180.274 734.324 185.98C742.512 191.691 749.323 197.868 753.934 205.713C758.55 213.566 760.94 223.056 760.346 235.356Z" fill="url(#paint1_radial_1_128)" stroke="#D1BBFD"/>
<path opacity="0.2" d="M708.328 222.761C705.918 275.938 671.906 323.363 618.982 357.065C566.054 390.769 494.165 410.785 415.86 409.158C340.116 407.585 272.224 385.551 222.826 351.439C170.091 315.022 138.382 264.795 140.821 210.97C143.182 158.852 177.197 111.428 230.13 77.4622C283.069 43.4934 354.98 22.9448 433.288 24.5716C475.558 25.4498 510.33 42.9567 540.778 65.2927C556 76.4601 570.15 88.84 583.617 100.959C597.091 113.084 609.872 124.939 622.383 135.083C633.082 143.758 643.921 150.492 654.139 156.483C664.345 162.467 673.962 167.725 682.16 173.419C690.365 179.119 697.194 185.287 701.828 193.126C706.467 200.973 708.886 210.46 708.328 222.761Z" fill="url(#paint2_radial_1_128)" stroke="#D1BBFD"/>
<path opacity="0.2" d="M729.811 210.797C732.642 261.211 703.765 301.994 657.658 330.574C611.553 359.152 548.162 375.573 481.77 377.283C417.67 378.933 375.687 382.875 330.684 352.612C318.752 344.588 306.548 338.623 294.894 333.394C283.255 328.171 272.126 323.665 262.421 318.585C252.706 313.5 244.353 307.808 238.251 300.169C232.14 292.519 228.314 282.95 227.596 270.161C224.823 220.792 254.469 162.805 301.332 116.761C348.207 70.7055 412.403 36.5018 478.887 34.7898C514.768 33.8659 545.815 48.9925 573.625 68.8516C587.53 78.7813 600.637 89.9032 613.141 100.803C625.651 111.71 637.548 122.386 649.059 131.457C658.902 139.212 668.685 145.129 677.877 150.368C687.057 155.601 695.68 160.176 703.141 165.223C710.611 170.276 716.959 175.829 721.6 183.053C726.244 190.281 729.157 199.148 729.811 210.797Z" fill="url(#paint3_radial_1_128)" stroke="#D1BBFD"/>
<path opacity="0.2" d="M436.33 51.6306C514.672 51.6307 585.619 73.1314 636.995 107.919C688.368 142.704 720.217 190.813 720.217 244.015C720.217 256.877 718.166 265.885 714.279 272.684C710.389 279.49 704.691 284.028 697.513 288.009C690.357 291.976 681.648 295.43 671.764 300.005C661.858 304.59 650.701 310.329 638.546 318.91C625.553 328.082 611.393 339.998 596.204 352.731C581.022 365.459 564.819 378.996 547.766 391.386C513.669 416.157 476.093 436.399 436.33 436.399C359.555 436.399 288.608 414.899 236.842 380.113C185.08 345.33 152.442 297.223 152.442 244.015C152.442 229.592 158.683 216.347 168.902 204.064C179.119 191.785 193.335 180.436 209.35 169.794C225.366 159.15 243.205 149.195 260.681 139.71C278.164 130.22 295.275 121.205 309.867 112.426C322.347 104.917 331.956 97.3755 340.482 90.2791C349 83.1901 356.47 76.516 364.627 70.7918C380.991 59.3084 400.135 51.6306 436.33 51.6306Z" fill="url(#paint4_radial_1_128)" stroke="#D1BBFD"/>
<path opacity="0.2" d="M620.324 98.4537C704.716 188.013 689.981 325.76 587.501 406.126C562.657 425.609 539.3 430.501 514.72 430.293C502.447 430.189 489.868 428.814 476.668 427.358C463.459 425.901 449.619 424.361 434.785 423.917C418.934 423.443 402.103 423.893 385.076 424.129C368.059 424.365 350.855 424.388 334.297 423.055C301.187 420.388 270.568 412.292 249.134 389.546C166.432 301.779 179.475 162.242 281.958 81.8737C309.657 60.1516 346.275 56.0828 384.05 58.2545C402.943 59.3407 422.15 61.9897 440.706 64.7857C459.271 67.5831 477.172 70.5254 493.491 72.2093C507.445 73.6491 519.888 73.4263 531.326 72.9222C542.748 72.4186 553.209 71.6314 563.123 71.9549C573.053 72.2789 582.477 73.7169 591.866 77.6776C601.254 81.6382 610.575 88.1076 620.324 98.4537Z" fill="url(#paint5_radial_1_128)" stroke="#D1BBFD"/>
<path opacity="0.2" d="M351.414 59.1354C419.674 33.0764 490.911 30.0161 550.913 46.1554C610.916 62.2949 659.713 97.6461 683.004 148.42C705.534 197.536 699.404 252.269 671.957 301.448C642.653 353.956 589.035 400.167 519.949 426.541C453.053 452.079 381.817 455.138 321.475 439.131C261.135 423.123 211.652 388.034 188.359 337.256C175.747 309.762 186.865 278.438 205.424 247.488C214.713 231.995 225.893 216.555 236.96 201.685C248.033 186.808 258.988 172.509 267.853 159.273C275.433 147.954 280.498 137.558 284.817 127.946C289.131 118.344 292.715 109.485 297.314 101.305C306.542 84.8889 319.866 71.179 351.414 59.1354Z" fill="url(#paint6_radial_1_128)" stroke="#D1BBFD"/>
<path opacity="0.2" d="M292.514 381.452C199.42 313.043 179.029 195.057 247.149 117.908C255.39 108.574 262.92 102.837 270.395 99.4448C277.877 96.0507 285.264 95.0227 293.187 95.0494C301.086 95.0761 309.57 96.1546 319.193 96.9865C328.834 97.8199 339.678 98.4134 352.385 97.49C365.971 96.5028 381.46 94.1423 397.814 91.6899C414.159 89.2389 431.36 86.6978 448.331 85.3618C482.253 82.6917 515.4 84.8195 539.073 102.215C630.303 169.254 652.561 288.609 584.438 365.761C566 386.643 535.756 393.297 503.11 394.77C486.774 395.507 469.799 394.948 453.345 394.208C436.882 393.466 420.953 392.544 406.669 392.549C394.459 392.553 383.929 393.833 374.322 395.262C364.728 396.69 356.009 398.275 347.493 398.871C338.959 399.468 330.595 399.075 321.665 396.544C312.737 394.014 303.27 389.355 292.514 381.452Z" fill="url(#paint7_radial_1_128)" stroke="#D1BBFD"/>
<path opacity="0.2" d="M751.491 211.371C753.599 261.94 724.753 303.109 679.169 332.173C633.588 361.234 571.22 378.234 506.105 380.493C443.244 382.674 402.026 386.974 358.303 356.965C346.712 349.01 334.827 343.124 323.471 337.97C312.131 332.824 301.279 328.393 291.831 323.374C282.374 318.349 274.26 312.704 268.379 305.086C262.489 297.458 258.866 287.888 258.331 275.061C256.267 225.539 286.096 167.099 332.65 120.502C379.215 73.8954 442.607 39.0387 507.815 36.7766C543.011 35.5556 573.25 50.4865 600.251 70.1906C613.752 80.043 626.455 91.0974 638.569 101.935C650.689 112.779 662.211 123.397 673.377 132.407C682.923 140.11 692.434 145.968 701.376 151.151C710.306 156.328 718.7 160.849 725.948 165.854C733.206 170.865 739.356 176.386 743.81 183.598C748.267 190.814 751.004 199.688 751.491 211.371Z" fill="url(#paint8_radial_1_128)" stroke="#D1BBFD"/>
<path opacity="0.2" d="M715.49 173.063C733.506 224.832 718.81 276.599 680.587 318.438C642.362 360.279 580.585 392.226 504.326 404.394C467.44 410.279 451.019 407.205 436.202 399.527C428.852 395.718 421.87 390.758 413.042 385.302C404.188 379.831 393.384 373.797 378.262 367.755C362.095 361.294 341.715 354.693 319.928 347.603C298.151 340.517 274.977 332.945 253.257 324.548C231.542 316.152 211.248 306.921 195.238 296.508C179.234 286.099 167.437 274.462 162.837 261.242C145.18 210.505 159.878 158.739 198.009 116.644C236.143 74.5454 297.74 42.0794 374.001 29.9113C415.172 23.3423 455.461 34.1536 493.415 50.3849C512.392 58.5003 530.796 67.9754 548.441 77.3179C566.094 86.6648 582.975 95.8724 598.94 103.475C612.594 109.976 625.639 114.579 637.8 118.572C649.947 122.561 661.248 125.952 671.345 130.014C681.452 134.08 690.408 138.84 697.881 145.596C705.361 152.358 711.323 161.091 715.49 173.063Z" fill="url(#paint9_radial_1_128)" stroke="#D1BBFD"/>
<path opacity="0.2" d="M436.33 51.6306C514.648 51.6307 585.577 68.0728 636.944 94.6804C688.287 121.275 720.217 158.105 720.217 198.923C720.217 208.794 718.158 215.728 714.246 220.964C710.34 226.191 704.632 229.663 697.466 232.703C690.313 235.737 681.61 238.377 671.721 241.879C661.812 245.387 650.652 249.779 638.495 256.344C625.501 263.362 611.341 272.477 596.152 282.218C580.97 291.954 564.768 302.31 547.715 311.788C513.613 330.741 476.055 346.214 436.33 346.214C359.578 346.214 288.649 329.77 236.892 303.164C185.163 276.572 152.443 239.745 152.442 198.923C152.442 187.805 158.73 177.632 168.948 168.236C179.17 158.837 193.389 150.156 209.399 142.016C225.414 133.874 243.252 126.259 260.727 119.003C278.21 111.744 295.322 104.847 309.916 98.1297C322.398 92.3844 332.007 86.6147 340.533 81.1863C349.051 75.7631 356.521 70.6578 364.678 66.2791C381.033 57.4985 400.159 51.6306 436.33 51.6306Z" fill="url(#paint10_radial_1_128)" stroke="#D1BBFD"/>
<path opacity="0.2" d="M255.611 102.06C348.815 38.1639 513.285 27.2756 622.957 77.6722C676.006 102.049 706.1 136.604 712.706 172.871C719.759 211.593 700.038 252.278 652.873 284.612C561.534 347.23 395.202 359.397 285.527 308.999C255.876 295.374 245.729 273.818 242.767 250.671C241.285 239.095 241.6 227.103 242.182 215.486C242.764 203.862 243.615 192.62 243.214 182.515C242.871 173.876 240.791 166.389 238.526 159.549C236.263 152.718 233.806 146.507 232.738 140.466C231.668 134.416 231.984 128.509 235.281 122.26C238.578 116.011 244.843 109.443 255.611 102.06Z" fill="url(#paint11_radial_1_128)" stroke="#D1BBFD"/>
<path opacity="0.2" d="M722.586 195.074C736.645 250.593 716.126 304.664 671.694 347.202C627.261 389.741 558.883 420.785 477.101 430.28C437.545 434.873 420.494 430.897 405.58 422.132C398.177 417.782 391.278 412.232 382.468 406.073C373.634 399.897 362.791 393.041 347.383 385.984C330.912 378.44 310.002 370.562 287.653 362.105C265.313 353.652 241.545 344.624 219.393 334.788C197.246 324.955 176.684 314.301 160.764 302.588C144.851 290.88 133.505 278.061 129.916 263.886C116.136 209.474 136.657 155.404 181.016 112.591C225.378 69.775 293.615 38.176 375.399 28.6803C419.543 23.5549 461.086 36.7583 499.644 55.5917C518.922 65.0081 537.465 75.8367 555.219 86.4922C572.98 97.1523 589.94 107.632 606.086 116.374C619.896 123.852 633.246 129.295 645.719 134.054C658.178 138.808 669.796 142.89 680.077 147.629C690.368 152.373 699.374 157.798 706.62 165.267C713.873 172.742 719.334 182.235 722.586 195.074Z" fill="url(#paint12_radial_1_128)" stroke="#D1BBFD"/>
<path opacity="0.2" d="M188.214 106.454C270.756 30.5224 418.925 22.695 519.149 88.8826C567.628 120.898 595.641 164.728 602.499 209.873C609.821 258.073 593.027 307.783 551.259 346.207C470.369 420.62 320.552 429.968 220.324 363.778C193.227 345.883 183.537 318.838 180.292 290.068C178.669 275.679 178.656 260.838 178.894 246.47C179.133 232.094 179.623 218.201 179.012 205.673C178.489 194.962 176.426 185.617 174.212 177.068C172.002 168.531 169.631 160.754 168.518 153.236C167.403 145.705 167.543 138.4 170.364 130.773C173.186 123.146 178.677 115.227 188.214 106.454Z" fill="url(#paint13_radial_1_128)" stroke="#D1BBFD"/>
<path opacity="0.2" d="M201.432 136.068C311.667 60.496 506.2 47.6135 635.925 107.226C651.618 114.437 661.324 120.918 667.157 127.266C672.994 133.619 674.934 139.818 675.148 146.442C675.362 153.049 673.856 160.107 672.793 168.137C671.728 176.179 671.098 185.239 673.043 195.914C675.121 207.325 679.536 220.376 684.129 234.149C688.719 247.916 693.484 262.397 696.248 276.645C701.772 305.114 699.339 332.778 671.315 351.99C563.286 426.05 366.551 440.446 236.822 380.833C201.77 364.726 189.768 339.241 186.263 311.859C184.511 298.164 184.882 283.978 185.571 270.232C186.261 256.48 187.267 243.176 186.792 231.218C186.386 220.991 183.923 212.128 181.243 204.033C178.565 195.948 175.66 188.603 174.396 181.46C173.132 174.306 173.506 167.326 177.401 159.943C181.296 152.56 188.699 144.797 201.432 136.068Z" fill="url(#paint14_radial_1_128)" stroke="#D1BBFD"/>
<path opacity="0.2" d="M663.569 121.897C766.928 201.8 754.596 322.944 636.115 392.485C621.792 400.891 610.442 405.719 600.357 408.178C590.253 410.641 581.45 410.718 572.254 409.666C563.106 408.62 553.495 406.442 541.892 404.406C530.256 402.365 516.507 400.443 498.926 399.872C480.13 399.262 457.501 399.854 433.283 400.458C409.077 401.061 383.295 401.675 358.233 401.104C333.172 400.533 308.801 398.776 287.415 394.63C266.03 390.483 247.587 383.938 234.435 373.771C133.145 295.468 143.404 172.727 261.888 103.184C293.906 84.391 337.154 81.2519 382.011 83.6239C404.446 84.8103 427.312 87.3771 449.412 90.0656C471.524 92.7554 492.855 95.5645 512.264 97.2463C528.862 98.6845 543.606 98.6395 557.146 98.3344C570.67 98.0297 583.039 97.4636 594.802 97.8691C606.583 98.2751 617.802 99.6556 629.073 103.257C640.344 106.858 651.63 112.667 663.569 121.897Z" fill="url(#paint15_radial_1_128)" stroke="#D1BBFD"/>
<path opacity="0.2" d="M652.668 118.717C754.931 199.267 741.365 320.666 622.464 389.874C593.643 406.649 566.173 410.566 537.113 409.958C522.603 409.654 507.694 408.223 492.046 406.708C476.389 405.193 459.982 403.594 442.43 402.946C423.676 402.253 403.789 402.36 383.666 402.275C363.553 402.19 343.215 401.913 323.604 400.45C284.388 397.523 247.973 389.844 222.006 369.39C121.789 290.452 133.306 167.444 252.21 98.234C284.342 79.5313 327.509 76.5693 372.228 79.1395C394.593 80.4249 417.374 83.096 439.39 85.8859C461.417 88.6772 482.663 91.5857 502.005 93.3549C518.546 94.8678 533.253 94.8853 546.762 94.6375C560.254 94.3899 572.597 93.8753 584.326 94.3322C596.072 94.7898 607.248 96.2226 618.454 99.8812C629.659 103.54 640.855 109.412 652.668 118.717Z" fill="url(#paint16_radial_1_128)" stroke="#D1BBFD"/>
<path opacity="0.2" d="M282.57 369.991C160.475 303.398 141.17 182.357 239.589 99.625C251.495 89.6169 262.164 83.364 272.581 79.5353C283.005 75.7042 293.136 74.3164 303.932 73.9929C314.702 73.6702 326.191 74.4073 339.27 74.8408C352.37 75.2749 367.131 75.4083 384.547 73.8888C403.163 72.2646 424.474 69.1346 446.965 65.8734C469.445 62.6138 493.094 59.2244 516.343 57.0905C562.812 52.8254 607.854 53.5582 638.877 70.4787C758.527 135.738 780.278 258.111 681.856 340.845C655.246 363.213 613.56 371.433 568.909 374.404C546.571 375.891 523.453 376.066 501.056 376.03C478.647 375.994 456.973 375.748 437.477 376.387C420.805 376.933 406.338 378.724 393.122 380.629C379.921 382.532 367.92 384.556 356.264 385.549C344.588 386.544 333.219 386.51 321.23 384.292C309.244 382.075 296.672 377.682 282.57 369.991Z" fill="url(#paint17_radial_1_128)" stroke="#D1BBFD"/>
<path opacity="0.2" d="M231.843 379.178C360.342 440.004 555.469 429.186 667.667 354.959C694.869 336.963 701.383 320.066 700.643 302.305C700.273 293.435 698.095 284.345 695.79 274.805C693.483 265.259 691.047 255.256 690.148 244.531C689.188 233.073 689.522 220.905 689.549 208.597C689.576 196.295 689.295 183.859 687.104 171.893C682.721 147.962 670.682 125.866 638.07 110.428C512.144 50.82 314.446 60.4174 202.245 134.647C171.916 154.712 166.813 181.192 170.577 208.487C172.46 222.14 176.566 236.02 180.869 249.428C185.174 262.844 189.673 275.781 192.358 287.577C194.654 297.665 194.564 306.662 194.056 314.93C193.548 323.189 192.621 330.751 193.26 337.916C193.899 345.092 196.109 351.894 201.889 358.665C207.668 365.434 217.002 372.153 231.843 379.178Z" fill="url(#paint18_radial_1_128)" stroke="#D1BBFD"/>
<defs>
<radialGradient id="paint0_radial_1_128" cx="0" cy="0" r="1" gradientUnits="userSpaceOnUse" gradientTransform="translate(433.335 244.364) rotate(-93.4792) scale(170.864 251.792)">
<stop stop-color="#D1BBFD" stop-opacity="0"/>
<stop offset="0.411458" stop-color="#D1BBFD" stop-opacity="0.109375"/>
<stop offset="1" stop-color="#D1BBFD"/>
</radialGradient>
<radialGradient id="paint1_radial_1_128" cx="0" cy="0" r="1" gradientUnits="userSpaceOnUse" gradientTransform="translate(476.611 229.075) rotate(-178.732) scale(283.305 191.94)">
<stop stop-color="#E1F1FE" stop-opacity="0"/>
<stop offset="0.421875" stop-color="#E1F1FE" stop-opacity="0.0989583"/>
<stop offset="1" stop-color="#E1F1FE"/>
</radialGradient>
<radialGradient id="paint2_radial_1_128" cx="0" cy="0" r="1" gradientUnits="userSpaceOnUse" gradientTransform="translate(424.574 216.865) rotate(-178.81) scale(283.315 191.933)">
<stop stop-color="#F3DAFA" stop-opacity="0"/>
<stop offset="0.307292" stop-color="#F3DAFA" stop-opacity="0.0885417"/>
<stop offset="0.848958" stop-color="#F3DAFA"/>
</radialGradient>
<radialGradient id="paint3_radial_1_128" cx="0" cy="0" r="1" gradientUnits="userSpaceOnUse" gradientTransform="translate(476.776 206.161) rotate(178.525) scale(251.993 170.761)">
<stop stop-color="#D1BBFD" stop-opacity="0"/>
<stop offset="0.411458" stop-color="#D1BBFD" stop-opacity="0.109375"/>
<stop offset="1" stop-color="#D1BBFD"/>
</radialGradient>
<radialGradient id="paint4_radial_1_128" cx="0" cy="0" r="1" gradientUnits="userSpaceOnUse" gradientTransform="translate(436.33 244.015) rotate(90) scale(191.884 283.387)">
<stop stop-color="#D8F7F9" stop-opacity="0"/>
<stop offset="0.453125" stop-color="#D8F7F9" stop-opacity="0.0885417"/>
<stop offset="1" stop-color="#D8F7F9"/>
</radialGradient>
<radialGradient id="paint5_radial_1_128" cx="0" cy="0" r="1" gradientUnits="userSpaceOnUse" gradientTransform="translate(434.73 244) rotate(141.896) scale(235.358 221.352)">
<stop stop-color="#C2C5FD" stop-opacity="0"/>
<stop offset="0.510417" stop-color="#C5C8FD" stop-opacity="0.0989583"/>
<stop offset="1" stop-color="#E2E4FA"/>
</radialGradient>
<radialGradient id="paint6_radial_1_128" cx="0" cy="0" r="1" gradientUnits="userSpaceOnUse" gradientTransform="translate(435.681 242.838) rotate(65.3582) scale(201.609 263.667)">
<stop stop-color="#F3DAFA" stop-opacity="0"/>
<stop offset="0.307292" stop-color="#F3DAFA" stop-opacity="0.0885417"/>
<stop offset="0.848958" stop-color="#F3DAFA"/>
</radialGradient>
<radialGradient id="paint7_radial_1_128" cx="0" cy="0" r="1" gradientUnits="userSpaceOnUse" gradientTransform="translate(415.794 241.834) rotate(-48.5564) scale(185.755 207.944)">
<stop stop-color="#F3F3FD" stop-opacity="0"/>
<stop offset="0.546875" stop-color="#F3F3FD" stop-opacity="0.0989583"/>
<stop offset="1" stop-color="#F3F3FD"/>
</radialGradient>
<radialGradient id="paint8_radial_1_128" cx="0" cy="0" r="1" gradientUnits="userSpaceOnUse" gradientTransform="translate(503.476 208.789) rotate(178.013) scale(247.198 171.259)">
<stop stop-color="#D1BBFD" stop-opacity="0"/>
<stop offset="0.411458" stop-color="#D1BBFD" stop-opacity="0.109375"/>
<stop offset="1" stop-color="#D1BBFD"/>
</radialGradient>
<radialGradient id="paint9_radial_1_128" cx="0" cy="0" r="1" gradientUnits="userSpaceOnUse" gradientTransform="translate(439.163 217.153) rotate(170.935) scale(279.322 194.677)">
<stop stop-color="#D8F7F9" stop-opacity="0"/>
<stop offset="0.453125" stop-color="#D8F7F9" stop-opacity="0.0885417"/>
<stop offset="1" stop-color="#D8F7F9"/>
</radialGradient>
<radialGradient id="paint10_radial_1_128" cx="0" cy="0" r="1" gradientUnits="userSpaceOnUse" gradientTransform="translate(436.33 198.922) rotate(90) scale(146.792 283.387)">
<stop stop-color="#D8F7F9" stop-opacity="0"/>
<stop offset="0.453125" stop-color="#D8F7F9" stop-opacity="0.0885417"/>
<stop offset="1" stop-color="#D8F7F9"/>
</radialGradient>
<radialGradient id="paint11_radial_1_128" cx="0" cy="0" r="1" gradientUnits="userSpaceOnUse" gradientTransform="translate(454.243 193.336) rotate(24.6799) scale(218.099 175.116)">
<stop stop-color="#E1F1FE" stop-opacity="0"/>
<stop offset="0.421875" stop-color="#E1F1FE" stop-opacity="0.0989583"/>
<stop offset="1" stop-color="#E1F1FE"/>
</radialGradient>
<radialGradient id="paint12_radial_1_128" cx="0" cy="0" r="1" gradientUnits="userSpaceOnUse" gradientTransform="translate(426.251 229.48) rotate(173.377) scale(297.826 204.829)">
<stop stop-color="#D8F7F9" stop-opacity="0"/>
<stop offset="0.453125" stop-color="#D8F7F9" stop-opacity="0.0885417"/>
<stop offset="1" stop-color="#D8F7F9"/>
</radialGradient>
<radialGradient id="paint13_radial_1_128" cx="0" cy="0" r="1" gradientUnits="userSpaceOnUse" gradientTransform="translate(369.737 226.331) rotate(33.4406) scale(217.033 196.546)">
<stop stop-color="#F3DAFA" stop-opacity="0"/>
<stop offset="0.307292" stop-color="#F3DAFA" stop-opacity="0.0885417"/>
<stop offset="0.848958" stop-color="#F3DAFA"/>
</radialGradient>
<radialGradient id="paint14_radial_1_128" cx="0" cy="0" r="1" gradientUnits="userSpaceOnUse" gradientTransform="translate(436.374 244.029) rotate(24.6799) scale(258.06 207.201)">
<stop stop-color="#F3F3FD" stop-opacity="0"/>
<stop offset="0.546875" stop-color="#F3F3FD" stop-opacity="0.0989583"/>
<stop offset="1" stop-color="#F3F3FD"/>
</radialGradient>
<radialGradient id="paint15_radial_1_128" cx="0" cy="0" r="1" gradientUnits="userSpaceOnUse" gradientTransform="translate(449.002 247.834) rotate(149.59) scale(248.295 219.001)">
<stop stop-color="#D8F7F9" stop-opacity="0"/>
<stop offset="0.723958" stop-color="#D8F7F9" stop-opacity="0.0885417"/>
<stop offset="1" stop-color="#D8F7F9"/>
</radialGradient>
<radialGradient id="paint16_radial_1_128" cx="0" cy="0" r="1" gradientUnits="userSpaceOnUse" gradientTransform="translate(437.337 244.054) rotate(149.798) scale(248.652 218.689)">
<stop stop-color="#C2C5FD" stop-opacity="0"/>
<stop offset="0.510417" stop-color="#C5C8FD" stop-opacity="0.0989583"/>
<stop offset="1" stop-color="#E2E4FA"/>
</radialGradient>
<radialGradient id="paint17_radial_1_128" cx="0" cy="0" r="1" gradientUnits="userSpaceOnUse" gradientTransform="translate(460.723 220.235) rotate(-40.0505) scale(232.235 234.149)">
<stop stop-color="#F3F3FD" stop-opacity="0"/>
<stop offset="0.546875" stop-color="#F3F3FD" stop-opacity="0.0989583"/>
<stop offset="1" stop-color="#F3F3FD"/>
</radialGradient>
<radialGradient id="paint18_radial_1_128" cx="0" cy="0" r="1" gradientUnits="userSpaceOnUse" gradientTransform="translate(434.956 244.803) rotate(-33.4877) scale(243.04 219.843)">
<stop stop-color="#C2C5FD" stop-opacity="0"/>
<stop offset="0.510417" stop-color="#C5C8FD" stop-opacity="0.0989583"/>
<stop offset="1" stop-color="#E2E4FA"/>
</radialGradient>
</defs>
</svg>
