<svg width="613" height="396" viewBox="0 0 613 396" fill="none" xmlns="http://www.w3.org/2000/svg">
<path opacity="0.2" d="M127.681 198.592C125.82 170.579 121.65 152.3 152.947 133.053C186.362 112.504 185.288 89.7444 238.156 89.0382C340.541 87.6707 479.401 143.056 483.249 200.979C485.321 232.178 420.806 254.338 383.084 274.071C350.77 290.974 349.246 307.742 301.041 308.385C196.563 309.781 131.528 256.516 127.681 198.592Z" fill="url(#paint0_radial_1_128)"/>
<path d="M319.311 310.827C266.006 309.747 218.282 295.492 183.609 273.487C146.588 249.992 124.444 217.661 126.268 183.093C129.799 116.149 222.142 61.2134 332.36 63.4468C391.724 64.6497 429.943 108.577 465.154 134.816C495.317 157.293 527.065 159.662 525.403 191.18C521.799 259.493 429.529 313.06 319.311 310.827Z" fill="white"/>
<path opacity="0.2" d="M329.295 312.064C275.99 310.984 228.266 296.73 193.593 274.725C156.572 251.229 134.428 218.898 136.251 184.33C139.783 117.387 232.125 62.451 342.343 64.6843C401.708 65.8872 439.926 109.814 475.138 136.054C505.301 158.531 537.049 160.9 535.386 192.418C531.783 260.73 439.513 314.298 329.295 312.064Z" fill="url(#paint1_radial_1_128)"/>
<path opacity="0.2" d="M293.031 304.197C239.722 303.183 191.953 288.989 157.208 267.026C120.111 243.578 97.8627 211.274 99.5741 176.704C102.888 109.756 195.053 54.7054 305.278 56.8015C364.647 57.9305 403.007 101.81 438.303 128.006C468.539 150.445 500.295 152.774 498.735 184.295C495.353 252.611 403.256 306.293 293.031 304.197Z" fill="url(#paint2_radial_1_128)"/>
<path opacity="0.2" d="M339.434 283.639C294.23 284.704 264.783 287.23 233.19 267.784C199.459 247.021 162.726 247.616 160.716 214.864C156.825 151.439 243.975 65.5945 337.443 63.3916C387.786 62.2051 424.63 102.238 457.113 125.666C484.938 145.735 512.039 146.731 513.871 176.593C517.842 241.316 432.902 281.436 339.434 283.639Z" fill="url(#paint3_radial_1_128)"/>
<path opacity="0.2" d="M507.111 198.01C507.111 231.065 484.068 223.852 449.715 246.05C413.037 269.75 363.24 321.766 307.437 321.766C199.369 321.766 107.763 266.358 107.763 198.01C107.763 161.196 177.351 136.086 218.513 113.417C253.774 93.9978 256.556 74.2536 307.437 74.2536C417.714 74.2536 507.111 129.661 507.111 198.01Z" fill="url(#paint4_radial_1_128)"/>
<path opacity="0.2" d="M413.711 302.329C378.856 327.349 348.239 314.878 306.355 313.73C261.636 312.505 205.832 320.828 175.817 291.671C117.689 235.206 126.839 145.404 198.908 93.6712C237.726 65.8071 301.633 83.1606 347.677 87.5094C387.119 91.2347 409.435 77.744 436.802 104.329C496.118 161.948 485.78 250.596 413.711 302.329Z" fill="url(#paint5_radial_1_128)"/>
<path opacity="0.2" d="M480.914 136.471C496.734 168.039 492.441 203.238 473.14 234.894C452.533 268.692 414.817 298.451 366.208 315.437C272.072 348.332 165.757 323.303 133.046 258.031C115.428 222.874 164.028 177.712 189.035 143.533C210.456 114.255 203.431 94.5523 247.752 79.0645C343.813 45.4968 448.203 71.1985 480.914 136.471Z" fill="url(#paint6_radial_1_128)"/>
<path opacity="0.2" d="M174.424 116.867C197.563 92.88 212.379 106.206 248.312 103.815C286.677 101.264 346.467 84.5139 379.597 106.798C443.754 149.952 459.354 226.74 411.51 276.339C385.741 303.053 326.851 293.486 286.545 293.499C252.018 293.51 236.545 306.726 206.338 286.408C140.869 242.371 126.58 166.465 174.424 116.867Z" fill="url(#paint7_radial_1_128)"/>
<path opacity="0.2" d="M356.586 285.709C312.254 287.117 283.349 289.873 252.657 270.592C219.888 250.006 183.868 250.877 182.372 218.022C179.474 154.394 266.155 67.5839 357.82 64.6732C407.192 63.1055 442.733 103.008 474.24 126.278C501.229 146.212 527.783 147.01 529.147 176.967C532.104 241.896 448.251 282.798 356.586 285.709Z" fill="url(#paint8_radial_1_128)"/>
<path opacity="0.2" d="M355.231 301.142C303.32 308.723 309.362 293.168 266.623 277.535C220.99 260.844 127.882 242.734 115.083 209.07C90.2962 143.876 156.299 75.9044 263.636 60.2279C321.449 51.7843 376.844 88.0051 421.886 107.638C460.47 124.455 492.115 121.605 503.785 152.3C529.078 218.826 462.568 285.465 355.231 301.142Z" fill="url(#paint9_radial_1_128)"/>
<path opacity="0.2" d="M507.111 168.927C507.111 194.214 484.068 188.697 449.715 205.678C413.037 223.809 363.24 263.6 307.437 263.6C199.369 263.6 107.763 221.214 107.763 168.927C107.763 140.765 177.351 121.556 218.513 104.214C253.774 89.3579 256.556 74.2536 307.437 74.2536C417.714 74.2536 507.111 116.64 507.111 168.927Z" fill="url(#paint10_radial_1_128)"/>
<path opacity="0.2" d="M438.644 90.9092C475.941 106.597 497.097 128.834 501.741 152.171C506.7 177.089 492.834 203.261 459.693 224.058C395.512 264.333 278.591 272.177 201.473 239.739C159.936 222.268 172.932 184.417 171.8 158.317C170.831 135.96 150.206 125.553 180.424 106.59C245.917 65.4922 361.526 58.4715 438.644 90.9092Z" fill="url(#paint11_radial_1_128)"/>
<path opacity="0.2" d="M336.078 317.829C280.402 323.746 288.426 307.545 244.888 289.292C198.403 269.803 101.877 246.894 91.8882 210.789C72.5434 140.866 149.47 71.6767 264.592 59.4419C326.599 52.8521 381.349 93.382 426.9 115.957C465.921 135.296 499.675 133.561 508.783 166.482C528.523 237.834 451.2 305.594 336.078 317.829Z" fill="url(#paint12_radial_1_128)"/>
<path opacity="0.2" d="M365.532 98.1753C399.616 118.779 419.31 146.985 424.131 176.034C429.278 207.05 417.471 239.028 388.122 263.741C331.285 311.6 225.975 317.634 155.5 275.033C117.541 252.087 128.249 205.618 126.523 173.259C125.045 145.539 106.15 132.001 132.91 109.467C190.908 60.6295 295.057 55.5739 365.532 98.1753Z" fill="url(#paint13_radial_1_128)"/>
<path opacity="0.2" d="M447.781 109.969C491.912 128.532 468.299 139.419 473.794 167.033C479.661 196.516 511.9 242.907 472.687 267.514C396.747 315.168 258.403 324.449 167.155 286.068C118.007 265.396 133.385 220.609 132.046 189.728C130.899 163.274 106.494 150.96 142.249 128.524C219.742 79.8954 356.533 71.5884 447.781 109.969Z" fill="url(#paint14_radial_1_128)"/>
<path opacity="0.2" d="M447.927 293.568C407.627 315.219 401.238 299.751 351.541 298.274C298.479 296.697 202.254 307.55 165.486 281.533C94.2825 231.148 101.476 152.146 184.805 107.378C229.686 83.2649 306.15 99.2622 360.909 103.605C407.817 107.326 433.721 95.6904 467.246 119.413C539.905 170.828 531.256 248.8 447.927 293.568Z" fill="url(#paint15_radial_1_128)"/>
<path opacity="0.2" d="M438.31 291.882C397.866 313.43 361.288 301.931 311.735 300.256C258.827 298.467 193.106 304.936 156.729 278.709C86.2823 227.917 94.358 148.743 177.984 104.188C223.025 80.1897 299.111 96.5274 353.68 101.096C400.426 105.01 426.397 93.4468 459.564 117.361C531.452 169.191 521.936 247.327 438.31 291.882Z" fill="url(#paint16_radial_1_128)"/>
<path opacity="0.2" d="M169.124 105.04C202.58 79.2969 221.751 92.4739 270.971 88.5431C323.523 84.3463 406.424 64.5987 449.882 86.2947C534.042 128.311 549.303 207.077 480.126 260.305C442.866 288.975 363.258 281.474 308.257 283.124C261.143 284.538 238.992 298.833 199.368 279.05C113.487 236.175 99.9466 158.268 169.124 105.04Z" fill="url(#paint17_radial_1_128)"/>
<path opacity="0.2" d="M470.119 269.425C508.266 246.324 488.382 226.084 485.845 198.372C483.135 168.784 495.024 131.847 449.289 112.03C360.719 73.6539 221.697 79.8448 142.82 127.61C100.336 153.338 128.39 195.598 135.965 226.058C142.454 252.151 121.949 266.937 163.65 285.005C254.031 324.166 391.242 317.191 470.119 269.425Z" fill="url(#paint18_radial_1_128)"/>
<defs>
<radialGradient id="paint0_radial_1_128" cx="0" cy="0" r="1" gradientUnits="userSpaceOnUse" gradientTransform="translate(305.327 198.235) rotate(-93.8) scale(110.238 177.349)">
<stop stop-color="#D1BBFD" stop-opacity="0"/>
<stop offset="0.411458" stop-color="#D1BBFD" stop-opacity="0.109375"/>
<stop offset="1" stop-color="#D1BBFD"/>
</radialGradient>
<radialGradient id="paint1_radial_1_128" cx="0" cy="0" r="1" gradientUnits="userSpaceOnUse" gradientTransform="translate(335.819 188.374) rotate(-178.839) scale(199.608 123.797)">
<stop stop-color="#E1F1FE" stop-opacity="0"/>
<stop offset="0.421875" stop-color="#E1F1FE" stop-opacity="0.0989583"/>
<stop offset="1" stop-color="#E1F1FE"/>
</radialGradient>
<radialGradient id="paint2_radial_1_128" cx="0" cy="0" r="1" gradientUnits="userSpaceOnUse" gradientTransform="translate(299.154 180.499) rotate(-178.911) scale(199.616 123.792)">
<stop stop-color="#F3DAFA" stop-opacity="0"/>
<stop offset="0.307292" stop-color="#F3DAFA" stop-opacity="0.0885417"/>
<stop offset="0.848958" stop-color="#F3DAFA"/>
</radialGradient>
<radialGradient id="paint3_radial_1_128" cx="0" cy="0" r="1" gradientUnits="userSpaceOnUse" gradientTransform="translate(335.936 173.596) rotate(178.65) scale(177.544 110.138)">
<stop stop-color="#D1BBFD" stop-opacity="0"/>
<stop offset="0.411458" stop-color="#D1BBFD" stop-opacity="0.109375"/>
<stop offset="1" stop-color="#D1BBFD"/>
</radialGradient>
<radialGradient id="paint4_radial_1_128" cx="0" cy="0" r="1" gradientUnits="userSpaceOnUse" gradientTransform="translate(307.437 198.01) rotate(90) scale(123.756 199.674)">
<stop stop-color="#D8F7F9" stop-opacity="0"/>
<stop offset="0.453125" stop-color="#D8F7F9" stop-opacity="0.0885417"/>
<stop offset="1" stop-color="#D8F7F9"/>
</radialGradient>
<radialGradient id="paint5_radial_1_128" cx="0" cy="0" r="1" gradientUnits="userSpaceOnUse" gradientTransform="translate(306.31 198) rotate(144.328) scale(160.632 147.384)">
<stop stop-color="#C2C5FD" stop-opacity="0"/>
<stop offset="0.510417" stop-color="#C5C8FD" stop-opacity="0.0989583"/>
<stop offset="1" stop-color="#E2E4FA"/>
</radialGradient>
<radialGradient id="paint6_radial_1_128" cx="0" cy="0" r="1" gradientUnits="userSpaceOnUse" gradientTransform="translate(306.98 197.251) rotate(63.3827) scale(132.197 182.731)">
<stop stop-color="#F3DAFA" stop-opacity="0"/>
<stop offset="0.307292" stop-color="#F3DAFA" stop-opacity="0.0885417"/>
<stop offset="0.848958" stop-color="#F3DAFA"/>
</radialGradient>
<radialGradient id="paint7_radial_1_128" cx="0" cy="0" r="1" gradientUnits="userSpaceOnUse" gradientTransform="translate(292.967 196.603) rotate(-46.0313) scale(124.778 140.675)">
<stop stop-color="#F3F3FD" stop-opacity="0"/>
<stop offset="0.546875" stop-color="#F3F3FD" stop-opacity="0.0989583"/>
<stop offset="1" stop-color="#F3F3FD"/>
</radialGradient>
<radialGradient id="paint8_radial_1_128" cx="0" cy="0" r="1" gradientUnits="userSpaceOnUse" gradientTransform="translate(354.748 175.291) rotate(178.181) scale(174.158 110.464)">
<stop stop-color="#D1BBFD" stop-opacity="0"/>
<stop offset="0.411458" stop-color="#D1BBFD" stop-opacity="0.109375"/>
<stop offset="1" stop-color="#D1BBFD"/>
</radialGradient>
<radialGradient id="paint9_radial_1_128" cx="0" cy="0" r="1" gradientUnits="userSpaceOnUse" gradientTransform="translate(309.434 180.685) rotate(171.691) scale(196.413 125.811)">
<stop stop-color="#D8F7F9" stop-opacity="0"/>
<stop offset="0.453125" stop-color="#D8F7F9" stop-opacity="0.0885417"/>
<stop offset="1" stop-color="#D8F7F9"/>
</radialGradient>
<radialGradient id="paint10_radial_1_128" cx="0" cy="0" r="1" gradientUnits="userSpaceOnUse" gradientTransform="translate(307.437 168.927) rotate(90) scale(94.6734 199.674)">
<stop stop-color="#D8F7F9" stop-opacity="0"/>
<stop offset="0.453125" stop-color="#D8F7F9" stop-opacity="0.0885417"/>
<stop offset="1" stop-color="#D8F7F9"/>
</radialGradient>
<radialGradient id="paint11_radial_1_128" cx="0" cy="0" r="1" gradientUnits="userSpaceOnUse" gradientTransform="translate(320.058 165.324) rotate(22.8128) scale(151.485 114.572)">
<stop stop-color="#E1F1FE" stop-opacity="0"/>
<stop offset="0.421875" stop-color="#E1F1FE" stop-opacity="0.0989583"/>
<stop offset="1" stop-color="#E1F1FE"/>
</radialGradient>
<radialGradient id="paint12_radial_1_128" cx="0" cy="0" r="1" gradientUnits="userSpaceOnUse" gradientTransform="translate(300.335 188.635) rotate(173.934) scale(209.621 132.247)">
<stop stop-color="#D8F7F9" stop-opacity="0"/>
<stop offset="0.453125" stop-color="#D8F7F9" stop-opacity="0.0885417"/>
<stop offset="1" stop-color="#D8F7F9"/>
</radialGradient>
<radialGradient id="paint13_radial_1_128" cx="0" cy="0" r="1" gradientUnits="userSpaceOnUse" gradientTransform="translate(260.516 186.604) rotate(31.1525) scale(149.109 130.004)">
<stop stop-color="#F3DAFA" stop-opacity="0"/>
<stop offset="0.307292" stop-color="#F3DAFA" stop-opacity="0.0885417"/>
<stop offset="0.848958" stop-color="#F3DAFA"/>
</radialGradient>
<radialGradient id="paint14_radial_1_128" cx="0" cy="0" r="1" gradientUnits="userSpaceOnUse" gradientTransform="translate(307.468 198.019) rotate(22.8128) scale(179.24 135.564)">
<stop stop-color="#F3F3FD" stop-opacity="0"/>
<stop offset="0.546875" stop-color="#F3F3FD" stop-opacity="0.0989583"/>
<stop offset="1" stop-color="#F3F3FD"/>
</radialGradient>
<radialGradient id="paint15_radial_1_128" cx="0" cy="0" r="1" gradientUnits="userSpaceOnUse" gradientTransform="translate(316.366 200.473) rotate(151.753) scale(171.276 144.273)">
<stop stop-color="#D8F7F9" stop-opacity="0"/>
<stop offset="0.723958" stop-color="#D8F7F9" stop-opacity="0.0885417"/>
<stop offset="1" stop-color="#D8F7F9"/>
</radialGradient>
<radialGradient id="paint16_radial_1_128" cx="0" cy="0" r="1" gradientUnits="userSpaceOnUse" gradientTransform="translate(308.147 198.035) rotate(151.952) scale(171.568 144.03)">
<stop stop-color="#C2C5FD" stop-opacity="0"/>
<stop offset="0.510417" stop-color="#C5C8FD" stop-opacity="0.0989583"/>
<stop offset="1" stop-color="#E2E4FA"/>
</radialGradient>
<radialGradient id="paint17_radial_1_128" cx="0" cy="0" r="1" gradientUnits="userSpaceOnUse" gradientTransform="translate(324.625 182.673) rotate(-37.5762) scale(158.044 156.354)">
<stop stop-color="#F3F3FD" stop-opacity="0"/>
<stop offset="0.546875" stop-color="#F3F3FD" stop-opacity="0.0989583"/>
<stop offset="1" stop-color="#F3F3FD"/>
</radialGradient>
<radialGradient id="paint18_radial_1_128" cx="0" cy="0" r="1" gradientUnits="userSpaceOnUse" gradientTransform="translate(306.469 198.518) rotate(-31.1979) scale(166.966 145.423)">
<stop stop-color="#C2C5FD" stop-opacity="0"/>
<stop offset="0.510417" stop-color="#C5C8FD" stop-opacity="0.0989583"/>
<stop offset="1" stop-color="#E2E4FA"/>
</radialGradient>
</defs>
</svg>
