<svg width="970" height="754" viewBox="0 0 970 754" fill="none" xmlns="http://www.w3.org/2000/svg">
<path opacity="0.2" d="M206.438 416.242C203.43 357.527 196.688 319.215 247.289 278.874C301.316 235.803 299.579 188.101 385.059 186.621C550.598 183.754 775.112 299.84 781.333 421.245C784.683 486.635 680.373 533.082 619.383 574.441C567.137 609.869 564.672 645.014 486.733 646.363C317.81 649.288 212.659 537.646 206.438 416.242Z" fill="url(#paint0_radial_1_128)"/>
<path d="M516.272 651.48C430.087 649.216 352.926 619.34 296.865 573.218C237.009 523.973 201.206 456.208 204.154 383.755C209.863 243.444 359.166 128.301 537.37 132.982C633.353 135.503 695.146 227.573 752.077 282.569C800.845 329.681 852.177 334.645 849.489 400.707C843.663 543.886 694.477 656.161 516.272 651.48Z" fill="white"/>
<path opacity="0.2" d="M532.414 654.074C446.229 651.81 369.068 621.934 313.007 575.811C253.151 526.567 217.348 458.801 220.296 386.349C226.005 246.038 375.308 130.895 553.512 135.576C649.495 138.097 711.288 230.167 768.219 285.163C816.987 332.275 868.319 337.239 865.631 403.3C859.805 546.48 710.619 658.755 532.414 654.074Z" fill="url(#paint1_radial_1_128)"/>
<path opacity="0.2" d="M473.782 637.585C387.591 635.46 310.356 605.709 254.179 559.677C194.2 510.529 158.228 442.821 160.995 370.364C166.353 230.044 315.368 114.66 493.584 119.054C589.573 121.42 651.595 213.39 708.664 268.295C757.55 315.327 808.894 320.209 806.371 386.274C800.903 529.463 651.997 641.978 473.782 637.585Z" fill="url(#paint2_radial_1_128)"/>
<path opacity="0.2" d="M548.809 594.496C475.721 596.729 428.11 602.023 377.03 561.264C322.491 517.746 263.1 518.992 259.851 450.347C253.559 317.409 394.467 137.483 545.589 132.866C626.985 130.379 686.556 214.286 739.075 263.39C784.065 305.454 827.882 307.543 830.844 370.133C837.265 505.789 699.931 589.878 548.809 594.496Z" fill="url(#paint3_radial_1_128)"/>
<path opacity="0.2" d="M819.914 415.02C819.914 484.303 782.657 469.185 727.114 515.711C667.812 565.386 587.298 674.408 497.074 674.408C322.347 674.408 174.235 558.276 174.235 415.02C174.235 337.861 286.746 285.231 353.3 237.717C410.311 197.016 414.809 155.633 497.074 155.633C675.374 155.633 819.914 271.764 819.914 415.02Z" fill="url(#paint4_radial_1_128)"/>
<path opacity="0.2" d="M668.902 633.669C612.547 686.109 563.045 659.971 495.326 657.566C423.022 654.998 332.796 672.442 284.267 611.331C190.284 492.983 205.078 304.762 321.602 196.331C384.363 137.929 487.69 174.301 562.135 183.416C625.907 191.224 661.988 162.948 706.237 218.669C802.141 339.436 785.425 525.238 668.902 633.669Z" fill="url(#paint5_radial_1_128)"/>
<path opacity="0.2" d="M777.558 286.038C803.136 352.203 796.195 425.979 764.989 492.328C731.67 563.168 670.691 625.541 592.098 661.144C439.895 730.091 268.002 677.63 215.114 540.822C186.628 467.135 265.206 372.477 305.638 300.84C340.273 239.473 328.914 198.178 400.574 165.716C555.889 95.3594 724.67 149.229 777.558 286.038Z" fill="url(#paint6_radial_1_128)"/>
<path opacity="0.2" d="M282.015 244.949C319.427 194.673 343.381 222.603 401.479 217.593C463.51 212.244 560.18 177.138 613.744 223.843C717.477 314.294 742.7 475.239 665.344 579.194C623.679 635.186 528.464 615.134 463.296 615.161C407.471 615.184 382.454 642.886 333.615 600.3C227.761 508.001 204.66 348.904 282.015 244.949Z" fill="url(#paint7_radial_1_128)"/>
<path opacity="0.2" d="M576.541 598.834C504.864 601.785 458.128 607.561 408.505 567.149C355.523 524.001 297.284 525.829 294.865 456.965C290.18 323.603 430.329 141.653 578.535 135.552C658.361 132.266 715.826 215.901 766.767 264.674C810.404 306.455 853.337 308.126 855.543 370.916C860.324 507.004 724.747 592.734 576.541 598.834Z" fill="url(#paint8_radial_1_128)"/>
<path opacity="0.2" d="M574.35 631.181C490.417 647.071 500.187 614.467 431.084 581.702C357.304 546.719 206.763 508.76 186.069 438.201C145.994 301.558 252.71 159.092 426.256 126.235C519.73 108.538 609.294 184.455 682.119 225.604C744.503 260.854 795.668 254.88 814.536 319.214C855.431 458.651 747.896 598.323 574.35 631.181Z" fill="url(#paint9_radial_1_128)"/>
<path opacity="0.2" d="M819.914 354.064C819.914 407.066 782.657 395.5 727.114 431.092C667.812 469.094 587.298 552.496 497.074 552.496C322.347 552.496 174.235 463.655 174.235 354.064C174.235 295.037 286.746 254.776 353.3 218.427C410.311 187.291 414.809 155.633 497.074 155.633C675.374 155.633 819.914 244.473 819.914 354.064Z" fill="url(#paint10_radial_1_128)"/>
<path opacity="0.2" d="M709.215 190.542C769.517 223.423 803.724 270.03 811.232 318.945C819.249 371.171 796.831 426.027 743.248 469.616C639.478 554.031 450.435 570.471 325.748 502.483C258.59 465.864 279.602 386.53 277.773 331.827C276.205 284.966 242.858 263.153 291.715 223.409C397.606 137.269 584.527 122.554 709.215 190.542Z" fill="url(#paint11_radial_1_128)"/>
<path opacity="0.2" d="M543.383 666.156C453.363 678.558 466.337 644.602 395.943 606.344C320.784 565.496 164.718 517.48 148.568 441.804C117.29 295.25 241.668 150.232 427.802 124.588C528.055 110.776 616.578 195.725 690.227 243.042C753.316 283.574 807.891 279.939 822.617 348.94C854.533 498.49 729.516 640.513 543.383 666.156Z" fill="url(#paint12_radial_1_128)"/>
<path opacity="0.2" d="M591.005 205.772C646.113 248.955 677.954 308.074 685.749 368.96C694.071 433.968 674.981 500.992 627.529 552.79C535.633 653.102 365.363 665.749 251.417 576.458C190.044 528.365 207.357 430.967 204.566 363.144C202.176 305.044 171.626 276.668 214.893 229.439C308.667 127.077 477.058 116.481 591.005 205.772Z" fill="url(#paint13_radial_1_128)"/>
<path opacity="0.2" d="M723.988 230.491C795.339 269.397 757.162 292.217 766.046 350.094C775.532 411.889 827.658 509.122 764.256 560.698C641.473 660.579 417.794 680.032 270.261 599.587C190.798 556.258 215.661 462.388 213.496 397.662C211.641 342.217 172.184 316.407 229.993 269.38C355.286 167.458 576.455 150.046 723.988 230.491Z" fill="url(#paint14_radial_1_128)"/>
<path opacity="0.2" d="M724.224 615.307C659.065 660.687 648.735 628.266 568.383 625.171C482.591 621.865 327.01 644.613 267.564 590.081C152.439 484.476 164.07 318.891 298.798 225.059C371.365 174.52 494.993 208.049 583.53 217.152C659.372 224.95 701.256 200.563 755.459 250.284C872.937 358.048 858.952 521.474 724.224 615.307Z" fill="url(#paint15_radial_1_128)"/>
<path opacity="0.2" d="M708.675 611.772C643.284 656.936 584.143 632.835 504.024 629.323C418.481 625.574 312.22 639.133 253.405 584.162C139.504 477.704 152.561 311.758 287.77 218.373C360.595 168.074 483.612 202.317 571.842 211.894C647.422 220.097 689.412 195.861 743.039 245.983C859.269 354.618 843.883 518.387 708.675 611.772Z" fill="url(#paint16_radial_1_128)"/>
<path opacity="0.2" d="M273.445 220.159C327.539 166.203 358.535 193.821 438.116 185.583C523.083 176.786 657.12 135.396 727.384 180.87C863.457 268.935 888.132 434.026 776.283 545.59C716.04 605.679 587.328 589.958 498.401 593.417C422.224 596.38 386.411 626.341 322.345 584.878C183.49 495.013 161.597 331.722 273.445 220.159Z" fill="url(#paint17_radial_1_128)"/>
<path opacity="0.2" d="M760.104 564.704C821.782 516.285 789.633 473.864 785.53 415.78C781.149 353.765 800.371 276.346 726.425 234.811C583.222 154.376 358.447 167.351 230.916 267.466C162.226 321.389 207.586 409.965 219.833 473.808C230.325 528.497 197.171 559.489 264.594 597.359C410.725 679.439 632.573 664.819 760.104 564.704Z" fill="url(#paint18_radial_1_128)"/>
<defs>
<radialGradient id="paint0_radial_1_128" cx="0" cy="0" r="1" gradientUnits="userSpaceOnUse" gradientTransform="translate(493.663 415.492) rotate(-92.9331) scale(230.849 286.999)">
<stop stop-color="#D1BBFD" stop-opacity="0"/>
<stop offset="0.411458" stop-color="#D1BBFD" stop-opacity="0.109375"/>
<stop offset="1" stop-color="#D1BBFD"/>
</radialGradient>
<radialGradient id="paint1_radial_1_128" cx="0" cy="0" r="1" gradientUnits="userSpaceOnUse" gradientTransform="translate(542.963 394.825) rotate(-178.495) scale(322.779 259.437)">
<stop stop-color="#E1F1FE" stop-opacity="0"/>
<stop offset="0.421875" stop-color="#E1F1FE" stop-opacity="0.0989583"/>
<stop offset="1" stop-color="#E1F1FE"/>
</radialGradient>
<radialGradient id="paint2_radial_1_128" cx="0" cy="0" r="1" gradientUnits="userSpaceOnUse" gradientTransform="translate(483.683 378.319) rotate(-178.588) scale(322.786 259.431)">
<stop stop-color="#F3DAFA" stop-opacity="0"/>
<stop offset="0.307292" stop-color="#F3DAFA" stop-opacity="0.0885417"/>
<stop offset="0.848958" stop-color="#F3DAFA"/>
</radialGradient>
<radialGradient id="paint3_radial_1_128" cx="0" cy="0" r="1" gradientUnits="userSpaceOnUse" gradientTransform="translate(543.152 363.85) rotate(178.25) scale(287.114 230.801)">
<stop stop-color="#D1BBFD" stop-opacity="0"/>
<stop offset="0.411458" stop-color="#D1BBFD" stop-opacity="0.109375"/>
<stop offset="1" stop-color="#D1BBFD"/>
</radialGradient>
<radialGradient id="paint4_radial_1_128" cx="0" cy="0" r="1" gradientUnits="userSpaceOnUse" gradientTransform="translate(497.074 415.02) rotate(90) scale(259.388 322.84)">
<stop stop-color="#D8F7F9" stop-opacity="0"/>
<stop offset="0.453125" stop-color="#D8F7F9" stop-opacity="0.0885417"/>
<stop offset="1" stop-color="#D8F7F9"/>
</radialGradient>
<radialGradient id="paint5_radial_1_128" cx="0" cy="0" r="1" gradientUnits="userSpaceOnUse" gradientTransform="translate(495.252 415) rotate(137.06) scale(288.202 278.376)">
<stop stop-color="#C2C5FD" stop-opacity="0"/>
<stop offset="0.510417" stop-color="#C5C8FD" stop-opacity="0.0989583"/>
<stop offset="1" stop-color="#E2E4FA"/>
</radialGradient>
<radialGradient id="paint6_radial_1_128" cx="0" cy="0" r="1" gradientUnits="userSpaceOnUse" gradientTransform="translate(496.336 413.43) rotate(68.8643) scale(265.579 308.239)">
<stop stop-color="#F3DAFA" stop-opacity="0"/>
<stop offset="0.307292" stop-color="#F3DAFA" stop-opacity="0.0885417"/>
<stop offset="0.848958" stop-color="#F3DAFA"/>
</radialGradient>
<radialGradient id="paint7_radial_1_128" cx="0" cy="0" r="1" gradientUnits="userSpaceOnUse" gradientTransform="translate(473.68 412.072) rotate(-53.3463) scale(234.623 253.533)">
<stop stop-color="#F3F3FD" stop-opacity="0"/>
<stop offset="0.546875" stop-color="#F3F3FD" stop-opacity="0.0989583"/>
<stop offset="1" stop-color="#F3F3FD"/>
</radialGradient>
<radialGradient id="paint8_radial_1_128" cx="0" cy="0" r="1" gradientUnits="userSpaceOnUse" gradientTransform="translate(573.569 367.402) rotate(177.643) scale(281.682 231.449)">
<stop stop-color="#D1BBFD" stop-opacity="0"/>
<stop offset="0.411458" stop-color="#D1BBFD" stop-opacity="0.109375"/>
<stop offset="1" stop-color="#D1BBFD"/>
</radialGradient>
<radialGradient id="paint9_radial_1_128" cx="0" cy="0" r="1" gradientUnits="userSpaceOnUse" gradientTransform="translate(500.303 378.708) rotate(169.279) scale(319.816 261.84)">
<stop stop-color="#D8F7F9" stop-opacity="0"/>
<stop offset="0.453125" stop-color="#D8F7F9" stop-opacity="0.0885417"/>
<stop offset="1" stop-color="#D8F7F9"/>
</radialGradient>
<radialGradient id="paint10_radial_1_128" cx="0" cy="0" r="1" gradientUnits="userSpaceOnUse" gradientTransform="translate(497.074 354.064) rotate(90) scale(198.432 322.84)">
<stop stop-color="#D8F7F9" stop-opacity="0"/>
<stop offset="0.453125" stop-color="#D8F7F9" stop-opacity="0.0885417"/>
<stop offset="1" stop-color="#D8F7F9"/>
</radialGradient>
<radialGradient id="paint11_radial_1_128" cx="0" cy="0" r="1" gradientUnits="userSpaceOnUse" gradientTransform="translate(517.481 346.513) rotate(28.6023) scale(257.148 228.724)">
<stop stop-color="#E1F1FE" stop-opacity="0"/>
<stop offset="0.421875" stop-color="#E1F1FE" stop-opacity="0.0989583"/>
<stop offset="1" stop-color="#E1F1FE"/>
</radialGradient>
<radialGradient id="paint12_radial_1_128" cx="0" cy="0" r="1" gradientUnits="userSpaceOnUse" gradientTransform="translate(485.592 395.372) rotate(172.156) scale(340.208 276.138)">
<stop stop-color="#D8F7F9" stop-opacity="0"/>
<stop offset="0.453125" stop-color="#D8F7F9" stop-opacity="0.0885417"/>
<stop offset="1" stop-color="#D8F7F9"/>
</radialGradient>
<radialGradient id="paint13_radial_1_128" cx="0" cy="0" r="1" gradientUnits="userSpaceOnUse" gradientTransform="translate(421.211 391.115) rotate(38.083) scale(262.119 250.616)">
<stop stop-color="#F3DAFA" stop-opacity="0"/>
<stop offset="0.307292" stop-color="#F3DAFA" stop-opacity="0.0885417"/>
<stop offset="0.848958" stop-color="#F3DAFA"/>
</radialGradient>
<radialGradient id="paint14_radial_1_128" cx="0" cy="0" r="1" gradientUnits="userSpaceOnUse" gradientTransform="translate(497.125 415.039) rotate(28.6023) scale(304.263 270.632)">
<stop stop-color="#F3F3FD" stop-opacity="0"/>
<stop offset="0.546875" stop-color="#F3F3FD" stop-opacity="0.0989583"/>
<stop offset="1" stop-color="#F3F3FD"/>
</radialGradient>
<radialGradient id="paint15_radial_1_128" cx="0" cy="0" r="1" gradientUnits="userSpaceOnUse" gradientTransform="translate(511.511 420.183) rotate(145.145) scale(297.281 281.685)">
<stop stop-color="#D8F7F9" stop-opacity="0"/>
<stop offset="0.723958" stop-color="#D8F7F9" stop-opacity="0.0885417"/>
<stop offset="1" stop-color="#D8F7F9"/>
</radialGradient>
<radialGradient id="paint16_radial_1_128" cx="0" cy="0" r="1" gradientUnits="userSpaceOnUse" gradientTransform="translate(498.222 415.073) rotate(145.368) scale(297.534 281.449)">
<stop stop-color="#C2C5FD" stop-opacity="0"/>
<stop offset="0.510417" stop-color="#C5C8FD" stop-opacity="0.0989583"/>
<stop offset="1" stop-color="#E2E4FA"/>
</radialGradient>
<radialGradient id="paint17_radial_1_128" cx="0" cy="0" r="1" gradientUnits="userSpaceOnUse" gradientTransform="translate(524.864 382.874) rotate(-44.927) scale(286.042 292.757)">
<stop stop-color="#F3F3FD" stop-opacity="0"/>
<stop offset="0.546875" stop-color="#F3F3FD" stop-opacity="0.0989583"/>
<stop offset="1" stop-color="#F3F3FD"/>
</radialGradient>
<radialGradient id="paint18_radial_1_128" cx="0" cy="0" r="1" gradientUnits="userSpaceOnUse" gradientTransform="translate(495.51 416.085) rotate(-38.1327) scale(293.568 280.284)">
<stop stop-color="#C2C5FD" stop-opacity="0"/>
<stop offset="0.510417" stop-color="#C5C8FD" stop-opacity="0.0989583"/>
<stop offset="1" stop-color="#E2E4FA"/>
</radialGradient>
</defs>
</svg>
