<svg width="352" height="349" viewBox="0 0 352 349" fill="none" xmlns="http://www.w3.org/2000/svg">
<g filter="url(#filter0_d_1_126)">
<path opacity="0.1" d="M79.1729 108.773C124.438 62.9437 204.479 55.2266 257.947 91.5131C264.447 95.9245 268.623 99.9885 271.18 104.085C273.755 108.212 274.598 112.23 274.698 116.4C274.796 120.463 274.176 124.863 273.768 129.511C273.354 134.238 273.119 139.499 273.896 145.69C274.736 152.384 276.51 160.065 278.387 168.3C280.254 176.493 282.213 185.194 283.358 193.77C285.629 210.779 284.826 228.044 272.824 240.195C228.459 285.113 147.533 293.751 94.0494 257.455C79.1058 247.313 74.1558 231.419 72.6937 214.949C71.9599 206.683 72.0953 198.147 72.3566 189.953C72.6194 181.715 73.0063 173.875 72.802 166.822C72.6303 160.892 71.6521 155.736 70.5702 150.957C69.502 146.239 68.2822 141.708 67.7498 137.338C67.2087 132.898 67.3455 128.456 69.0269 123.727C70.7065 119.004 73.8769 114.135 79.1729 108.773Z" fill="url(#paint0_linear_1_126)" stroke="#4146A9" stroke-width="5"/>
<path opacity="0.1" d="M180.748 278.277C114.891 279.696 74.1417 227.002 71.8024 170.181C71.2546 156.875 70.3119 145.372 71.9953 134.963C73.7123 124.345 78.1418 114.831 88.1396 105.196C93.108 100.409 96.8144 95.4763 100.11 90.6869C103.355 85.9713 106.343 81.1675 109.652 77.054C113.022 72.8647 116.882 69.1727 122.111 66.5058C127.338 63.8401 133.769 62.2808 142.173 62.0996C174.256 61.4082 211.794 74.6197 241.578 94.9686C271.276 115.259 293.973 143.155 295.171 172.238C295.837 188.429 285.482 201.941 272.732 213.499C266.307 219.323 259.132 224.775 252.166 229.926C245.163 235.104 238.416 239.948 232.68 244.651C227.862 248.601 224.178 252.552 220.87 256.324C217.605 260.046 214.572 263.758 211.26 266.932C207.888 270.161 204.12 272.947 199.203 274.95C194.299 276.946 188.376 278.113 180.748 278.277Z" fill="url(#paint1_linear_1_126)" stroke="#4146A9" stroke-width="5"/>
<path opacity="0.1" d="M301.777 175.715C301.491 235.848 244.814 283.426 175.992 282.744C167.668 282.662 161.668 281.831 157.028 280.236C152.31 278.613 149.114 276.239 146.355 273.295C143.741 270.504 141.35 266.976 138.591 263.45C135.746 259.814 132.203 255.741 126.889 251.28C121.132 246.446 113.622 241.146 105.474 235.375C97.3663 229.634 88.6714 223.458 80.7052 216.957C72.7479 210.464 65.4118 203.564 60.0594 196.335C54.7109 189.111 51.1991 181.364 51.2379 173.231C51.5191 114.285 108.184 65.5201 177.024 66.2027C196.177 66.3927 212.063 76.2285 225.79 88.4653C232.664 94.5928 239.068 101.387 245.113 107.978C251.189 114.603 256.864 120.976 262.399 126.423C267.053 131.003 271.749 134.556 276.239 137.758C280.671 140.92 285.068 143.847 288.811 147.008C292.606 150.214 295.908 153.797 298.229 158.446C300.554 163.103 301.811 168.663 301.777 175.715Z" fill="url(#paint2_linear_1_126)" stroke="#4146A9" stroke-width="5"/>
<path opacity="0.1" d="M270.835 166.493C269.001 222.563 223.87 266.768 169.823 265.001C143.681 264.147 120.322 252.423 103.392 234.355C85.3213 215.07 74.5325 188.516 75.4614 160.105C77.2581 105.151 122.409 59.8289 176.473 61.5964C191.702 62.0944 203.93 71.8027 214.23 83.4815C219.409 89.3539 224.2 95.841 228.71 102.12C233.249 108.437 237.472 114.497 241.612 119.688C245.081 124.036 248.607 127.426 251.993 130.492C255.328 133.513 258.688 136.354 261.523 139.397C264.412 142.5 266.886 145.936 268.56 150.332C270.23 154.72 271.049 159.919 270.835 166.493Z" fill="white" stroke="#4146A9" stroke-width="5"/>
<path opacity="0.1" d="M270.835 166.493C269.001 222.563 223.87 266.768 169.823 265.001C143.681 264.147 120.322 252.423 103.392 234.355C85.3213 215.07 74.5325 188.516 75.4614 160.105C77.2581 105.151 122.409 59.8289 176.473 61.5964C191.702 62.0944 203.93 71.8027 214.23 83.4815C219.409 89.3539 224.2 95.841 228.71 102.12C233.249 108.437 237.472 114.497 241.612 119.688C245.081 124.036 248.607 127.426 251.993 130.492C255.328 133.513 258.688 136.354 261.523 139.397C264.412 142.5 266.886 145.936 268.56 150.332C270.23 154.72 271.049 159.919 270.835 166.493Z" fill="url(#paint3_linear_1_126)" stroke="#4146A9" stroke-width="5"/>
<path opacity="0.1" d="M273.164 93.0076C318.463 145.703 314.293 223.808 263.544 267.434C250.952 278.258 238.693 280.602 225.874 279.941C219.548 279.615 213.057 278.556 206.401 277.466C199.704 276.368 192.795 275.232 185.429 274.677C177.509 274.08 169.129 273.976 160.515 273.745C151.944 273.516 143.184 273.161 134.694 272.048C117.717 269.823 101.478 264.522 89.6498 250.762C45.2538 199.117 48.5078 119.973 99.2702 76.3362C113.448 64.1485 132.605 62.7342 151.829 64.7665C161.485 65.7873 171.31 67.6961 180.726 69.6547C190.187 71.6228 199.181 73.6285 207.363 74.9048C214.249 75.9789 220.371 76.1185 226.067 76.0798C231.696 76.0417 237.119 75.8201 242.244 76.2213C247.449 76.6287 252.526 77.6824 257.67 80.2581C262.805 82.8297 267.87 86.8492 273.164 93.0076Z" fill="url(#paint4_linear_1_126)" stroke="#4146A9" stroke-width="5"/>
<path opacity="0.1" d="M134.697 60.2646C198.8 33.4392 271.805 61.5095 297.64 123.245C310.136 153.105 308.97 185.436 297.346 213.806C284.937 244.09 260.59 269.917 228.117 283.506C165.292 309.797 91.0153 282.277 65.1739 220.526C57.9565 203.279 62.5233 184.62 70.389 166.962C74.3399 158.092 79.1877 149.336 83.9564 140.984C88.7484 132.592 93.4316 124.656 97.1708 117.267C100.317 111.049 102.339 105.269 104.061 99.8384C105.761 94.4727 107.224 89.2462 109.187 84.4952C111.181 79.6697 113.751 75.1655 117.788 71.0679C121.819 66.9768 127.205 63.3996 134.697 60.2646Z" fill="url(#paint5_linear_1_126)" stroke="#4146A9" stroke-width="5"/>
<path opacity="0.1" d="M105.503 266.117C51.3864 222.526 41.3005 144.963 83.2816 92.8451C88.3833 86.5115 93.1044 82.4387 97.8787 79.9386C102.684 77.4223 107.372 76.5889 112.242 76.4731C116.995 76.36 122.146 76.9403 127.616 77.3152C133.173 77.6961 139.359 77.8996 146.625 77.1156C154.474 76.2686 163.47 74.5095 173.106 72.6496C182.696 70.7988 192.876 68.8574 202.917 67.7069C222.862 65.4216 243.024 66.1459 257.311 77.6542C310.349 120.377 321.524 198.795 279.532 250.926C267.804 265.486 249.223 270.357 229.949 271.85C220.269 272.6 210.26 272.507 200.645 272.292C190.984 272.075 181.776 271.736 173.497 271.967C166.531 272.162 160.486 273.136 154.891 274.209C149.363 275.269 144.07 276.472 138.958 277.008C133.765 277.553 128.581 277.439 123.055 275.84C117.538 274.244 111.827 271.212 105.503 266.117Z" fill="url(#paint6_linear_1_126)" stroke="#4146A9" stroke-width="5"/>
<path opacity="0.1" d="M302.679 166.811C303.899 198.874 289.111 224.91 265.783 243.161C242.503 261.372 210.704 271.867 177.573 273.127C146.231 274.319 124.502 277.034 101.642 257.692C95.9524 252.879 90.104 249.29 84.4324 246.105C78.8391 242.963 73.2012 240.104 68.3521 236.92C63.4361 233.692 59.0589 229.972 55.8523 224.88C52.6334 219.769 50.7076 213.46 50.3944 205.224C49.2041 173.923 64.334 137.345 87.8487 108.349C111.356 79.3627 143.689 57.4149 177.383 56.1336C195.979 55.4265 211.789 65.2229 225.553 77.599C232.456 83.8054 238.934 90.7441 245.059 97.4835C251.215 104.258 256.976 110.785 262.56 116.332C267.256 120.996 271.941 124.561 276.412 127.76C280.826 130.919 285.2 133.835 288.952 137.029C292.762 140.272 296.09 143.924 298.518 148.731C300.944 153.537 302.396 159.346 302.679 166.811Z" fill="url(#paint7_linear_1_126)" stroke="#4146A9" stroke-width="5"/>
<path opacity="0.1" d="M181.393 50.6289C250.882 50.6289 307.393 104.706 307.393 171.629C307.393 179.699 306.489 185.562 304.652 190.115C302.785 194.745 300.024 197.846 296.655 200.493C293.44 203.019 289.391 205.316 285.275 208.016C281.044 210.79 276.317 214.239 271.161 219.396C265.582 224.977 259.48 232.25 252.838 240.141C246.228 247.993 239.119 256.413 231.622 264.131C216.764 279.428 199.783 292.629 181.393 292.629C113.288 292.629 55.3927 238.569 55.3927 171.629C55.3927 152.933 66.8082 137.484 80.881 124.23C87.9495 117.574 95.802 111.367 103.425 105.504C111.085 99.6119 118.469 94.0995 124.771 88.7266C130.074 84.2052 134.17 79.6537 137.855 75.3086C141.495 71.0153 144.862 66.7587 148.507 63.1338C152.209 59.4521 156.318 56.2888 161.624 54.0674C166.922 51.8495 173.272 50.6289 181.393 50.6289Z" fill="url(#paint8_linear_1_126)" stroke="#4146A9" stroke-width="5"/>
<path opacity="0.1" d="M250.753 94.3143C284.89 147.816 281.842 227.31 243.415 271.815C233.838 282.906 224.511 285.297 214.81 284.624C210.029 284.291 205.127 283.213 200.114 282.107C195.066 280.993 189.869 279.84 184.329 279.278C178.368 278.674 172.063 278.567 165.568 278.333C159.108 278.1 152.497 277.741 146.088 276.608C133.265 274.344 120.995 268.947 112.061 254.945C78.6054 202.51 80.961 121.962 119.399 77.4442C130.199 64.9358 144.75 63.5262 159.234 65.5892C166.521 66.6271 173.933 68.5669 181.028 70.5554C188.162 72.5547 194.931 74.5889 201.09 75.8833C206.263 76.9704 210.862 77.1115 215.149 77.0723C219.379 77.0336 223.484 76.8079 227.358 77.2166C231.302 77.6326 235.149 78.7094 239.045 81.3376C242.932 83.9599 246.758 88.0536 250.753 94.3143Z" fill="url(#paint9_linear_1_126)" stroke="#4146A9" stroke-width="5"/>
<path opacity="0.1" d="M146.196 61.2644C195.133 33.6739 250.103 62.7755 269.431 125.001C278.805 155.181 277.956 187.932 269.183 216.78C259.817 247.575 241.372 274.038 216.619 287.994C168.646 315.042 112.716 286.501 93.3831 224.258C87.9956 206.912 91.3846 188.048 97.341 170.032C100.323 161.011 103.982 152.108 107.577 143.626C111.191 135.097 114.714 127.056 117.527 119.567C119.889 113.277 121.41 107.423 122.707 101.908C123.987 96.4681 125.092 91.1508 126.574 86.3169C128.079 81.4114 130.037 76.762 133.155 72.4986C136.28 68.2257 140.449 64.5048 146.196 61.2644Z" fill="url(#paint10_linear_1_126)" stroke="#4146A9" stroke-width="5"/>
<path opacity="0.1" d="M124.111 270.466C83.1174 225.977 75.6214 147.028 107.24 94.1414C111.086 87.7096 114.648 83.567 118.258 81.0201C121.897 78.4529 125.455 77.5981 129.155 77.4795C132.753 77.3642 136.661 77.9566 140.765 78.3356C144.943 78.7214 149.588 78.9268 155.044 78.1336C160.948 77.2753 167.717 75.4914 174.982 73.6024C182.206 71.7238 189.885 69.752 197.46 68.5826C212.47 66.2656 227.797 66.9609 238.704 78.7969C278.883 122.402 287.202 202.219 255.573 255.121C246.724 269.923 232.692 274.883 218.131 276.403C210.824 277.165 203.272 277.071 196.026 276.852C188.74 276.632 181.812 276.288 175.582 276.523C170.352 276.719 165.809 277.706 161.597 278.794C157.441 279.868 153.438 281.093 149.574 281.639C145.644 282.195 141.698 282.082 137.478 280.437C133.263 278.794 128.912 275.676 124.111 270.466Z" fill="url(#paint11_linear_1_126)" stroke="#4146A9" stroke-width="5"/>
<path opacity="0.1" d="M273.402 169.449C275.228 234.125 229.11 274.784 178.518 277.377C166.801 277.977 156.56 278.967 147.272 277.345C137.753 275.682 129.245 271.307 120.627 261.483C116.359 256.618 111.977 252.996 107.722 249.777C103.539 246.611 99.248 243.676 95.575 240.427C91.8239 237.109 88.5251 233.315 86.1267 228.185C83.7336 223.065 82.3048 216.762 82.0718 208.509C81.1812 176.954 92.5113 139.928 110.242 110.472C127.882 81.1653 152.413 58.4867 178.376 57.1564C192.936 56.4104 205.065 66.7154 215.352 79.1777C220.558 85.4844 225.442 92.5321 230.056 99.372C234.695 106.25 239.035 112.877 243.242 118.506C246.773 123.232 250.293 126.84 253.652 130.078C256.966 133.274 260.282 136.252 263.121 139.507C269.014 146.265 272.976 154.332 273.402 169.449Z" fill="url(#paint12_linear_1_126)" stroke="#4146A9" stroke-width="5"/>
<path opacity="0.1" d="M181.393 50.6289C234.973 50.6289 277.393 106.559 277.393 174.129C277.393 182.32 276.713 188.212 275.351 192.767C273.966 197.398 271.901 200.56 269.305 203.311C266.854 205.908 263.733 208.301 260.658 211.021C257.479 213.834 253.917 217.336 250.025 222.588C245.804 228.283 241.186 235.708 236.156 243.767C231.153 251.783 225.768 260.382 220.091 268.265C214.422 276.136 208.379 283.411 202.016 288.737C195.667 294.051 188.755 297.629 181.393 297.629C155.15 297.629 131.102 283.582 113.694 261.225C96.2812 238.862 85.3927 208.063 85.3927 174.129C85.3927 155.33 93.9141 139.653 104.63 126.042C109.99 119.234 115.944 112.887 121.718 106.897C127.523 100.875 133.103 95.2569 137.866 89.7793C141.868 85.1772 144.966 80.5378 147.758 76.0967C150.513 71.7147 153.063 67.3658 155.826 63.6602C158.625 59.9063 161.783 56.605 165.928 54.2646C170.094 51.9125 175.081 50.6289 181.393 50.6289Z" fill="url(#paint13_linear_1_126)" stroke="#4146A9" stroke-width="5"/>
<path opacity="0.1" d="M79.1729 108.773C124.438 62.9437 204.479 55.2266 257.947 91.5131C283.821 109.072 298.518 133.926 301.786 159.972C305.274 187.776 295.744 216.989 272.824 240.195C228.459 285.113 147.533 293.751 94.0494 257.455C79.1058 247.313 74.1558 231.419 72.6937 214.949C71.9599 206.683 72.0953 198.147 72.3566 189.953C72.6194 181.715 73.0063 173.875 72.802 166.822C72.6303 160.892 71.6521 155.736 70.5702 150.957C69.502 146.239 68.2822 141.708 67.7498 137.338C67.2087 132.898 67.3455 128.456 69.0269 123.727C70.7065 119.004 73.8769 114.135 79.1729 108.773Z" fill="url(#paint14_linear_1_126)" stroke="#4146A9" stroke-width="5"/>
<path opacity="0.1" d="M256.993 253.619C202.529 291.694 121.994 287.394 77.1563 243.585C66.0071 232.692 63.6366 222.168 64.3709 211.225C64.7331 205.827 65.8513 200.3 67.0012 194.639C68.1586 188.94 69.3575 183.067 69.9582 176.8C70.6044 170.059 70.7456 162.922 71.0183 155.579C71.2895 148.275 71.6903 140.805 72.8724 133.573C75.2366 119.108 80.7702 105.302 95.0069 95.3495C148.385 58.0338 229.994 61.5622 274.845 105.384C287.408 117.659 288.773 134.067 286.601 150.432C285.51 158.658 283.504 167.018 281.448 175.025C279.381 183.072 277.28 190.713 275.933 197.671C274.8 203.521 274.631 208.731 274.648 213.584C274.664 218.376 274.871 223.01 274.436 227.382C273.994 231.826 272.885 236.156 270.205 240.525C267.529 244.885 263.362 249.166 256.993 253.619Z" fill="url(#paint15_linear_1_126)" stroke="#4146A9" stroke-width="5"/>
<path opacity="0.1" d="M265.127 257.023C229.787 307.731 161.289 311.444 112.219 266C88.4498 243.988 73.6614 214.187 68.6274 183.667C63.2533 151.084 68.99 117.602 86.8724 91.9428C121.513 42.2383 190.697 37.5089 239.781 82.9649C253.46 95.6332 259.086 114.369 261.752 133.666C263.088 143.337 263.697 153.268 264.167 162.792C264.64 172.366 264.973 181.467 265.749 189.69C266.401 196.603 267.683 202.668 269.024 208.303C270.348 213.865 271.786 219.214 272.616 224.333C273.46 229.53 273.723 234.709 272.667 240.142C271.609 245.577 269.266 251.084 265.127 257.023Z" fill="url(#paint16_linear_1_126)" stroke="#4146A9" stroke-width="5"/>
</g>
<defs>
<filter id="filter0_d_1_126" x="43.829" y="47.6019" width="270.064" height="261.303" filterUnits="userSpaceOnUse" color-interpolation-filters="sRGB">
<feFlood flood-opacity="0" result="BackgroundImageFix"/>
<feColorMatrix in="SourceAlpha" type="matrix" values="0 0 0 0 0 0 0 0 0 0 0 0 0 0 0 0 0 0 127 0" result="hardAlpha"/>
<feOffset dy="4"/>
<feGaussianBlur stdDeviation="2"/>
<feComposite in2="hardAlpha" operator="out"/>
<feColorMatrix type="matrix" values="0 0 0 0 0 0 0 0 0 0 0 0 0 0 0 0 0 0 0.25 0"/>
<feBlend mode="normal" in2="BackgroundImageFix" result="effect1_dropShadow_1_126"/>
<feBlend mode="normal" in="SourceGraphic" in2="effect1_dropShadow_1_126" result="shape"/>
</filter>
<linearGradient id="paint0_linear_1_126" x1="81.2414" y1="110.177" x2="241.475" y2="268.436" gradientUnits="userSpaceOnUse">
<stop stop-color="#F3F3FD"/>
<stop offset="1" stop-color="#F3F3FD" stop-opacity="0"/>
</linearGradient>
<linearGradient id="paint1_linear_1_126" x1="187.764" y1="275.626" x2="183.197" y2="63.716" gradientUnits="userSpaceOnUse">
<stop stop-color="#D1BBFD"/>
<stop offset="1" stop-color="#D1BBFD" stop-opacity="0"/>
</linearGradient>
<linearGradient id="paint2_linear_1_126" x1="299.277" y1="175.691" x2="53.7321" y2="174.52" gradientUnits="userSpaceOnUse">
<stop stop-color="#D8F7F9" stop-opacity="0"/>
<stop offset="1" stop-color="#D8F7F9"/>
</linearGradient>
<linearGradient id="paint3_linear_1_126" x1="268.336" y1="166.411" x2="77.9605" y2="160.187" gradientUnits="userSpaceOnUse">
<stop stop-color="#E1F1FE"/>
<stop offset="1" stop-color="#E1F1FE" stop-opacity="0"/>
</linearGradient>
<linearGradient id="paint4_linear_1_126" x1="271.268" y1="94.6373" x2="91.5456" y2="249.133" gradientUnits="userSpaceOnUse">
<stop stop-color="#C2C5FD"/>
<stop offset="1" stop-color="#C2C5FD" stop-opacity="0"/>
</linearGradient>
<linearGradient id="paint5_linear_1_126" x1="135.662" y1="62.5708" x2="227.152" y2="281.2" gradientUnits="userSpaceOnUse">
<stop stop-color="#F3DAFA"/>
<stop offset="1" stop-color="#F3DAFA" stop-opacity="0"/>
</linearGradient>
<linearGradient id="paint6_linear_1_126" x1="107.071" y1="264.17" x2="255.743" y2="79.6011" gradientUnits="userSpaceOnUse">
<stop stop-color="#F3F3FD"/>
<stop offset="1" stop-color="#F3F3FD" stop-opacity="0"/>
</linearGradient>
<linearGradient id="paint7_linear_1_126" x1="299.918" y1="159.995" x2="51.5356" y2="169.44" gradientUnits="userSpaceOnUse">
<stop stop-color="#D1BBFD"/>
<stop offset="1" stop-color="#D1BBFD" stop-opacity="0"/>
</linearGradient>
<linearGradient id="paint8_linear_1_126" x1="181.393" y1="53.1289" x2="181.393" y2="290.129" gradientUnits="userSpaceOnUse">
<stop stop-color="#D8F7F9"/>
<stop offset="1" stop-color="#D8F7F9" stop-opacity="0"/>
</linearGradient>
<linearGradient id="paint9_linear_1_126" x1="249.119" y1="96.2066" x2="81.7544" y2="202.992" gradientUnits="userSpaceOnUse">
<stop stop-color="#C2C5FD"/>
<stop offset="1" stop-color="#C2C5FD" stop-opacity="0"/>
</linearGradient>
<linearGradient id="paint10_linear_1_126" x1="146.937" y1="63.6521" x2="258.521" y2="261.564" gradientUnits="userSpaceOnUse">
<stop stop-color="#F3DAFA"/>
<stop offset="1" stop-color="#F3DAFA" stop-opacity="0"/>
</linearGradient>
<linearGradient id="paint11_linear_1_126" x1="125.393" y1="268.32" x2="279.355" y2="126.453" gradientUnits="userSpaceOnUse">
<stop stop-color="#F3F3FD"/>
<stop offset="1" stop-color="#F3F3FD" stop-opacity="0"/>
</linearGradient>
<linearGradient id="paint12_linear_1_126" x1="270.708" y1="162.561" x2="83.4249" y2="167.847" gradientUnits="userSpaceOnUse">
<stop stop-color="#D1BBFD"/>
<stop offset="1" stop-color="#D1BBFD" stop-opacity="0"/>
</linearGradient>
<linearGradient id="paint13_linear_1_126" x1="181.393" y1="53.1289" x2="181.393" y2="295.129" gradientUnits="userSpaceOnUse">
<stop stop-color="#D8F7F9"/>
<stop offset="1" stop-color="#D8F7F9" stop-opacity="0"/>
</linearGradient>
<linearGradient id="paint14_linear_1_126" x1="81.2414" y1="110.177" x2="241.475" y2="268.436" gradientUnits="userSpaceOnUse">
<stop stop-color="#E1F1FE"/>
<stop offset="1" stop-color="#E1F1FE" stop-opacity="0"/>
</linearGradient>
<linearGradient id="paint15_linear_1_126" x1="255.205" y1="251.872" x2="130.521" y2="73.5194" gradientUnits="userSpaceOnUse">
<stop stop-color="#C2C5FD"/>
<stop offset="1" stop-color="#C2C5FD" stop-opacity="0"/>
</linearGradient>
<linearGradient id="paint16_linear_1_126" x1="263.293" y1="255.324" x2="69.9385" y2="120.571" gradientUnits="userSpaceOnUse">
<stop stop-color="#F3DAFA"/>
<stop offset="1" stop-color="#F3DAFA" stop-opacity="0"/>
</linearGradient>
</defs>
</svg>
