<svg width="785" height="470" viewBox="0 0 785 470" fill="none" xmlns="http://www.w3.org/2000/svg">
<mask id="path-1-inside-1_2002_861" fill="white">
<path d="M348.625 0C408.439 0 462.921 12.7266 503.835 33.585C520.276 31.5055 537.385 30.4053 554.955 30.4053C682.005 30.4054 785 87.8171 785 158.638C785 185.671 769.992 210.749 744.368 231.428C756.771 247.184 763.655 264.596 763.655 282.904C763.655 353.725 660.661 411.137 533.61 411.137C506.693 411.137 480.856 408.558 456.85 403.822C419.496 418.426 373.999 427 324.909 427C207.515 427 110.66 377.984 96.6152 314.664C38.1335 291.414 0.000252116 253.288 0 210.195C0 160.247 51.2325 116.969 126.003 95.7979C151.775 40.6816 241.677 9.6763e-05 348.625 0Z"/>
</mask>
<path d="M348.625 0C408.439 0 462.921 12.7266 503.835 33.585C520.276 31.5055 537.385 30.4053 554.955 30.4053C682.005 30.4054 785 87.8171 785 158.638C785 185.671 769.992 210.749 744.368 231.428C756.771 247.184 763.655 264.596 763.655 282.904C763.655 353.725 660.661 411.137 533.61 411.137C506.693 411.137 480.856 408.558 456.85 403.822C419.496 418.426 373.999 427 324.909 427C207.515 427 110.66 377.984 96.6152 314.664C38.1335 291.414 0.000252116 253.288 0 210.195C0 160.247 51.2325 116.969 126.003 95.7979C151.775 40.6816 241.677 9.6763e-05 348.625 0Z" fill="white" style="fill:white;fill-opacity:1;"/>
<path d="M348.625 0L348.625 -5L348.625 -5L348.625 0ZM503.835 33.585L501.564 38.0395L502.935 38.7386L504.462 38.5454L503.835 33.585ZM554.955 30.4053L554.955 25.4053H554.955V30.4053ZM785 158.638L790 158.638L790 158.638L785 158.638ZM744.368 231.428L741.228 227.537L737.384 230.639L740.439 234.52L744.368 231.428ZM763.655 282.904L768.655 282.904V282.904H763.655ZM533.61 411.137L533.61 416.137L533.61 416.137L533.61 411.137ZM456.85 403.822L457.817 398.917L456.387 398.635L455.029 399.165L456.85 403.822ZM324.909 427L324.909 432H324.909V427ZM96.6152 314.664L101.497 313.581L100.923 310.996L98.4624 310.018L96.6152 314.664ZM0 210.195L-5 210.195L-5 210.195L0 210.195ZM126.003 95.7979L127.365 100.609L129.564 99.986L130.532 97.9157L126.003 95.7979ZM348.625 0V5C407.781 5 461.462 17.5947 501.564 38.0395L503.835 33.585L506.106 29.1305C464.381 7.85851 409.098 -5 348.625 -5V0ZM503.835 33.585L504.462 38.5454C520.693 36.4925 537.593 35.4053 554.955 35.4053V30.4053V25.4053C537.177 25.4053 519.858 26.5185 503.208 28.6245L503.835 33.585ZM554.955 30.4053L554.955 35.4053C617.791 35.4053 674.432 49.6134 715.187 72.3311C756.108 95.1414 780 125.859 780 158.638L785 158.638L790 158.638C790 120.596 762.395 87.1973 720.056 63.5965C677.551 39.9032 619.169 25.4053 554.955 25.4053L554.955 30.4053ZM785 158.638H780C780 183.674 766.114 207.454 741.228 227.537L744.368 231.428L747.508 235.319C773.87 214.045 790 187.668 790 158.638H785ZM744.368 231.428L740.439 234.52C752.283 249.566 758.655 265.918 758.655 282.904H763.655H768.655C768.655 263.274 761.259 244.801 748.297 228.335L744.368 231.428ZM763.655 282.904L758.655 282.904C758.655 315.683 734.763 346.401 693.842 369.211C653.087 391.929 596.447 406.137 533.61 406.137L533.61 411.137L533.61 416.137C597.824 416.137 656.206 401.639 698.711 377.946C741.05 354.345 768.655 320.946 768.655 282.904L763.655 282.904ZM533.61 411.137V406.137C507.01 406.137 481.497 403.588 457.817 398.917L456.85 403.822L455.882 408.728C480.216 413.528 506.377 416.137 533.61 416.137V411.137ZM456.85 403.822L455.029 399.165C418.313 413.52 373.44 422 324.909 422V427V432C374.557 432 420.679 423.332 458.67 408.479L456.85 403.822ZM324.909 427L324.909 422C266.861 422 214.08 409.874 174.229 390.098C134.225 370.246 108.051 343.132 101.497 313.581L96.6152 314.664L91.7339 315.747C99.2241 349.516 128.5 378.569 169.784 399.056C211.22 419.618 265.563 432 324.909 432L324.909 427ZM96.6152 314.664L98.4624 310.018C40.542 286.991 5.00023 250.102 5 210.195L0 210.195L-5 210.195C-4.99973 256.473 35.7249 295.837 94.768 319.31L96.6152 314.664ZM0 210.195H5C5 187.059 16.8475 165.013 38.2859 145.941C59.7342 126.86 90.4982 111.048 127.365 100.609L126.003 95.7979L124.641 90.987C86.7373 101.719 54.4998 118.132 31.6392 138.469C8.76877 158.816 -5 183.383 -5 210.195H0ZM126.003 95.7979L130.532 97.9157C142.706 71.881 170.405 48.6117 208.874 31.8125C247.233 15.0612 295.752 5.00005 348.625 5L348.625 0L348.625 -5C294.55 -4.99995 244.644 5.27976 204.872 22.6483C165.209 39.9689 135.072 64.5985 121.474 93.68L126.003 95.7979Z" fill="black" style="fill:black;fill-opacity:1;" mask="url(#path-1-inside-1_2002_861)"/>
<mask id="path-3-inside-2_2002_861" fill="white">
<path d="M94.5 401C96.7734 401 98.9603 401.371 101.004 402.054C101.498 402.018 101.997 402 102.5 402C113.822 402 123 411.178 123 422.5C123 423.379 122.943 424.245 122.836 425.095C123.589 427.258 124 429.581 124 432C124 443.598 114.598 453 103 453C99.777 453 96.7243 452.272 93.9951 450.975C82.8638 450.45 74 441.261 74 430C74 428.535 74.1499 427.104 74.4355 425.724C74.1501 424.361 74 422.948 74 421.5C74 410.178 83.1782 401 94.5 401Z"/>
</mask>
<path d="M94.5 401C96.7734 401 98.9603 401.371 101.004 402.054C101.498 402.018 101.997 402 102.5 402C113.822 402 123 411.178 123 422.5C123 423.379 122.943 424.245 122.836 425.095C123.589 427.258 124 429.581 124 432C124 443.598 114.598 453 103 453C99.777 453 96.7243 452.272 93.9951 450.975C82.8638 450.45 74 441.261 74 430C74 428.535 74.1499 427.104 74.4355 425.724C74.1501 424.361 74 422.948 74 421.5C74 410.178 83.1782 401 94.5 401Z" fill="white" style="fill:white;fill-opacity:1;"/>
<path d="M101.004 402.054L99.4186 406.796L100.367 407.113L101.364 407.041L101.004 402.054ZM122.836 425.095L117.875 424.468L117.728 425.631L118.114 426.738L122.836 425.095ZM93.9951 450.975L96.1419 446.459L95.2343 446.027L94.2304 445.98L93.9951 450.975ZM74.4355 425.724L79.3319 426.737L79.5427 425.717L79.3294 424.699L74.4355 425.724ZM94.5 401V406C96.227 406 97.8789 406.281 99.4186 406.796L101.004 402.054L102.589 397.312C100.042 396.46 97.3199 396 94.5 396V401ZM101.004 402.054L101.364 407.041C101.738 407.014 102.117 407 102.5 407V402V397C101.877 397 101.258 397.022 100.644 397.067L101.004 402.054ZM102.5 402V407C111.06 407 118 413.94 118 422.5H123H128C128 408.417 116.583 397 102.5 397V402ZM123 422.5H118C118 423.164 117.957 423.82 117.875 424.468L122.836 425.095L127.797 425.721C127.929 424.67 128 423.594 128 422.5H123ZM122.836 425.095L118.114 426.738C118.686 428.383 119 430.151 119 432H124H129C129 429.01 128.491 426.132 127.558 423.451L122.836 425.095ZM124 432H119C119 440.837 111.837 448 103 448V453V458C117.359 458 129 446.359 129 432H124ZM103 453V448C100.537 448 98.2166 447.445 96.1419 446.459L93.9951 450.975L91.8483 455.49C95.2321 457.099 99.0166 458 103 458V453ZM93.9951 450.975L94.2304 445.98C85.7529 445.581 79 438.578 79 430H74H69C69 443.944 79.9748 455.32 93.7598 455.969L93.9951 450.975ZM74 430H79C79 428.877 79.1149 427.786 79.3319 426.737L74.4355 425.724L69.5392 424.711C69.185 426.423 69 428.193 69 430H74ZM74.4355 425.724L79.3294 424.699C79.1141 423.671 79 422.601 79 421.5H74H69C69 423.294 69.1861 425.05 69.5417 426.749L74.4355 425.724ZM74 421.5H79C79 412.94 85.9396 406 94.5 406V401V396C80.4167 396 69 407.417 69 421.5H74Z" fill="black" style="fill:black;fill-opacity:1;" mask="url(#path-3-inside-2_2002_861)"/>
<mask id="path-5-inside-3_2002_861" fill="white">
<path d="M34.7598 436C36.3975 436 37.9732 436.242 39.4453 436.689C39.8001 436.666 40.1583 436.654 40.5195 436.654C48.6712 436.654 55.2802 442.655 55.2803 450.058C55.2803 450.632 55.2394 451.198 55.1621 451.754C55.7042 453.168 56 454.688 56 456.27C55.9998 463.853 49.2303 470 40.8799 470C38.5591 470 36.3607 469.524 34.3955 468.676C26.3816 468.332 20.0002 462.324 20 454.962C20 454.004 20.1078 453.068 20.3135 452.165C20.108 451.274 20 450.351 20 449.404C20 442.002 26.6082 436 34.7598 436Z"/>
</mask>
<path d="M34.7598 436C36.3975 436 37.9732 436.242 39.4453 436.689C39.8001 436.666 40.1583 436.654 40.5195 436.654C48.6712 436.654 55.2802 442.655 55.2803 450.058C55.2803 450.632 55.2394 451.198 55.1621 451.754C55.7042 453.168 56 454.688 56 456.27C55.9998 463.853 49.2303 470 40.8799 470C38.5591 470 36.3607 469.524 34.3955 468.676C26.3816 468.332 20.0002 462.324 20 454.962C20 454.004 20.1078 453.068 20.3135 452.165C20.108 451.274 20 450.351 20 449.404C20 442.002 26.6082 436 34.7598 436Z" fill="white" style="fill:white;fill-opacity:1;"/>
<path d="M34.7598 436L34.7598 431L34.7597 431L34.7598 436ZM39.4453 436.689L37.9921 441.474L38.863 441.738L39.7714 441.679L39.4453 436.689ZM40.5195 436.654L40.5195 431.654L40.5194 431.654L40.5195 436.654ZM55.2803 450.058L60.2803 450.058L60.2803 450.058L55.2803 450.058ZM55.1621 451.754L50.2098 451.065L50.0324 452.341L50.4934 453.544L55.1621 451.754ZM56 456.27L61 456.27V456.27H56ZM40.8799 470L40.8798 475H40.8799V470ZM34.3955 468.676L36.3776 464.085L35.5309 463.72L34.6095 463.68L34.3955 468.676ZM20 454.962L15 454.962L15 454.962L20 454.962ZM20.3135 452.165L25.1885 453.276L25.4431 452.158L25.1856 451.042L20.3135 452.165ZM20 449.404L15 449.404L15 449.404L20 449.404ZM34.7598 436V441C35.9033 441 36.9894 441.169 37.9921 441.474L39.4453 436.689L40.8986 431.905C38.9571 431.316 36.8918 431 34.7598 431V436ZM39.4453 436.689L39.7714 441.679C40.0192 441.663 40.2687 441.654 40.5197 441.654L40.5195 436.654L40.5194 431.654C40.0478 431.654 39.5809 431.67 39.1193 431.7L39.4453 436.689ZM40.5195 436.654V441.654C46.3747 441.654 50.2802 445.859 50.2803 450.058L55.2803 450.058L60.2803 450.058C60.2802 439.45 50.9677 431.654 40.5195 431.654V436.654ZM55.2803 450.058H50.2803C50.2803 450.395 50.2563 450.73 50.2098 451.065L55.1621 451.754L60.1145 452.443C60.2224 451.666 60.2803 450.87 60.2803 450.058H55.2803ZM55.1621 451.754L50.4934 453.544C50.823 454.403 51 455.317 51 456.27H56H61C61 454.058 60.5855 451.933 59.8308 449.964L55.1621 451.754ZM56 456.27L51 456.269C50.9999 460.649 46.9333 465 40.8799 465V470V475C51.5273 475 60.9997 467.057 61 456.27L56 456.27ZM40.8799 470L40.8799 465C39.2448 465 37.7206 464.665 36.3776 464.085L34.3955 468.676L32.4134 473.266C35.0008 474.383 37.8733 475 40.8798 475L40.8799 470ZM34.3955 468.676L34.6095 463.68C28.823 463.432 25.0001 459.219 25 454.962L20 454.962L15 454.962C15.0003 465.43 23.9401 473.232 34.1815 473.671L34.3955 468.676ZM20 454.962H25C25 454.38 25.0653 453.817 25.1885 453.276L20.3135 452.165L15.4384 451.054C15.1502 452.319 15 453.627 15 454.962H20ZM20.3135 452.165L25.1856 451.042C25.0643 450.515 25 449.969 25 449.404L20 449.404L15 449.404C15 450.733 15.1518 452.033 15.4413 453.289L20.3135 452.165ZM20 449.404H25C25 445.205 28.9055 441 34.7598 441L34.7598 436L34.7597 431C24.3108 431 15 438.798 15 449.404H20Z" fill="black" style="fill:black;fill-opacity:1;" mask="url(#path-5-inside-3_2002_861)"/>
</svg>
